<?xml version="1.0" standalone="no"?>
<!DOCTYPE svg PUBLIC "-//W3C//DTD SVG 20010904//EN"
 "http://www.w3.org/TR/2001/REC-SVG-20010904/DTD/svg10.dtd">
<svg version="1.0" xmlns="http://www.w3.org/2000/svg"
 width="2987.000000pt" height="2987.000000pt" viewBox="0 0 2987.000000 2987.000000"
 preserveAspectRatio="xMidYMid meet">

<g transform="translate(0.000000,2987.000000) scale(0.100000,-0.100000)"
fill="#000000" stroke="none">
<path d="M16289 29097 c-87 -30 -167 -91 -218 -168 -57 -85 -74 -150 -69 -263
5 -117 41 -201 122 -282 81 -81 165 -117 282 -122 113 -5 179 12 265 71 116
77 178 188 187 334 18 306 -277 529 -569 430z"/>
<path d="M15789 28617 c-66 -50 -36 -147 46 -147 41 0 72 23 80 59 11 52 -27
100 -80 100 -16 0 -37 -5 -46 -12z"/>
<path d="M16945 28558 c-46 -27 -58 -75 -29 -116 37 -53 110 -47 140 9 36 70
-43 146 -111 107z"/>
<path d="M15746 28340 c-127 -40 -233 -147 -276 -276 -18 -54 -22 -82 -18
-159 3 -80 8 -101 38 -161 43 -88 116 -161 204 -204 60 -30 81 -35 161 -38
113 -5 176 11 263 67 201 130 253 417 112 614 -106 148 -308 213 -484 157z"/>
<path d="M16915 28284 c-215 -69 -300 -323 -167 -500 151 -199 450 -164 555
64 33 73 31 189 -6 263 -32 66 -100 132 -162 160 -62 27 -158 33 -220 13z"/>
<path d="M16437 27979 c-24 -14 -47 -62 -47 -100 0 -43 56 -99 100 -99 66 0
109 43 110 108 0 62 -41 102 -102 102 -24 0 -51 -5 -61 -11z"/>
<path d="M17435 27898 c-55 -30 -62 -92 -14 -132 35 -30 49 -32 88 -11 33 16
41 33 41 80 0 57 -63 92 -115 63z"/>
<path d="M17453 27665 c-221 -48 -372 -268 -335 -488 30 -174 151 -309 317
-352 250 -64 494 96 536 353 38 231 -126 455 -361 492 -78 12 -79 12 -157 -5z"/>
<path d="M16593 27606 c-139 -45 -225 -161 -227 -306 -1 -67 3 -84 32 -142 69
-140 216 -211 360 -174 105 27 182 90 225 185 30 66 29 188 -2 257 -28 64
-101 136 -166 165 -61 27 -164 34 -222 15z"/>
<path d="M15435 27561 c-29 -12 -44 -33 -51 -69 -5 -26 -1 -36 24 -62 17 -16
40 -30 51 -30 75 0 117 80 69 134 -26 29 -63 39 -93 27z"/>
<path d="M15819 27396 c-209 -58 -348 -273 -312 -482 24 -141 116 -265 241
-326 57 -28 78 -33 163 -36 148 -6 241 30 338 133 220 232 118 610 -190 706
-70 22 -171 24 -240 5z"/>
<path d="M18094 27146 c-43 -19 -64 -53 -64 -101 1 -97 107 -140 176 -71 84
84 -5 219 -112 172z"/>
<path d="M16934 26876 c-38 -38 -44 -77 -19 -126 19 -37 43 -50 95 -50 108 0
140 149 43 199 -42 21 -83 13 -119 -23z"/>
<path d="M18003 26855 c-77 -21 -130 -51 -188 -106 -260 -246 -121 -682 236
-740 227 -37 451 130 489 364 48 302 -241 561 -537 482z"/>
<path d="M16551 26776 c-31 -17 -50 -53 -51 -94 0 -51 54 -102 108 -102 99 0
142 121 67 188 -30 25 -86 29 -124 8z"/>
<path d="M17089 26635 c-217 -59 -353 -266 -319 -482 38 -234 261 -401 489
-364 256 41 420 288 356 534 -21 81 -49 132 -106 192 -106 112 -275 161 -420
120z"/>
<path d="M16161 26514 c-122 -33 -228 -119 -284 -233 -31 -63 -32 -70 -32
-186 0 -116 1 -123 33 -188 131 -266 476 -327 691 -122 96 91 137 198 129 338
-3 66 -11 97 -36 150 -90 192 -302 295 -501 241z"/>
<path d="M15665 26455 c-34 -33 -34 -83 0 -115 77 -72 185 41 110 115 -15 16
-36 25 -55 25 -19 0 -40 -9 -55 -25z"/>
<path d="M18578 26290 c-25 -26 -29 -36 -24 -63 15 -73 96 -97 142 -43 32 37
30 71 -5 107 -39 38 -74 38 -113 -1z"/>
<path d="M17682 26045 c-77 -65 -27 -185 77 -185 67 0 118 84 91 150 -26 63
-113 81 -168 35z"/>
<path d="M18520 26034 c-162 -43 -282 -179 -312 -352 -48 -280 207 -537 488
-493 235 36 403 262 366 488 -43 260 -292 424 -542 357z"/>
<path d="M17600 25776 c-131 -28 -237 -112 -297 -233 -32 -65 -37 -86 -41
-162 -7 -145 32 -244 133 -340 169 -160 424 -159 594 4 96 92 137 198 129 340
-4 71 -10 95 -41 158 -62 125 -175 211 -311 236 -72 13 -95 13 -166 -3z"/>
<path d="M17051 25686 c-31 -17 -50 -53 -51 -94 0 -50 54 -102 107 -102 48 0
81 22 100 67 38 92 -66 179 -156 129z"/>
<path d="M14443 25665 c-150 -42 -259 -149 -305 -298 -64 -212 51 -446 260
-529 80 -31 233 -31 312 0 110 44 208 142 252 252 17 44 22 76 22 155 0 79 -5
111 -22 155 -44 111 -143 210 -252 251 -72 27 -197 34 -267 14z"/>
<path d="M16575 25639 c-165 -24 -316 -164 -354 -330 -59 -255 128 -509 389
-526 394 -27 617 438 347 724 -101 108 -232 153 -382 132z"/>
<path d="M16089 25561 c-38 -39 -38 -74 1 -113 26 -25 36 -29 63 -24 73 15 97
96 43 142 -37 32 -71 30 -107 -5z"/>
<path d="M19190 25493 c-61 -22 -79 -95 -35 -138 64 -65 163 11 129 100 -6 15
-55 46 -71 44 -4 0 -15 -3 -23 -6z"/>
<path d="M5340 25429 c-124 -24 -244 -122 -303 -246 -30 -64 -32 -75 -32 -178
0 -103 2 -114 32 -178 160 -338 626 -338 786 0 30 64 32 75 32 178 0 103 -2
114 -32 178 -89 187 -282 285 -483 246z"/>
<path d="M13477 25420 c-156 -55 -262 -182 -290 -346 -21 -125 26 -273 118
-366 93 -94 195 -133 336 -126 76 4 97 9 162 41 330 163 322 621 -13 780 -56
27 -78 32 -160 34 -76 3 -107 -1 -153 -17z"/>
<path d="M6108 25376 c-90 -33 -139 -94 -146 -182 -16 -191 202 -306 344 -182
70 62 94 161 59 246 -41 97 -163 153 -257 118z"/>
<path d="M13023 25345 c-42 -30 -34 -121 12 -139 47 -18 91 -4 111 36 30 58
-6 118 -71 118 -17 0 -40 -7 -52 -15z"/>
<path d="M6695 25282 c-159 -55 -267 -179 -296 -341 -33 -185 65 -372 239
-458 74 -37 79 -38 186 -38 104 0 115 2 179 32 272 129 340 472 136 688 -60
63 -112 96 -188 119 -72 21 -192 20 -256 -2z"/>
<path d="M9652 25269 c-70 -13 -148 -54 -203 -106 -98 -91 -139 -185 -139
-318 0 -133 41 -227 139 -318 214 -200 557 -128 685 142 29 62 31 73 31 176 0
103 -2 114 -31 176 -89 187 -284 287 -482 248z"/>
<path d="M12524 25232 c-116 -40 -200 -117 -257 -232 -30 -61 -32 -70 -32
-180 0 -109 2 -119 32 -183 42 -87 117 -163 207 -207 60 -30 81 -35 161 -38
113 -5 193 18 279 79 234 168 233 531 -1 699 -106 76 -272 102 -389 62z"/>
<path d="M12094 25230 c-12 -5 -29 -19 -38 -32 -52 -74 38 -164 112 -112 51
35 46 111 -9 139 -32 17 -36 17 -65 5z"/>
<path d="M18225 25228 c-31 -17 -45 -39 -45 -73 0 -65 60 -101 118 -71 60 31
58 111 -5 144 -27 15 -42 15 -68 0z"/>
<path d="M10606 25219 c-65 -15 -153 -69 -206 -125 -200 -212 -136 -556 128
-686 57 -28 78 -33 164 -36 84 -4 108 -1 161 18 155 57 259 180 287 343 28
160 -51 338 -191 427 -96 62 -231 85 -343 59z"/>
<path d="M19035 25213 c-120 -43 -205 -119 -256 -227 -142 -303 87 -636 421
-613 101 7 188 45 263 116 221 209 165 567 -109 702 -61 30 -78 34 -168 37
-77 2 -113 -2 -151 -15z"/>
<path d="M8250 25197 c-54 -28 -61 -99 -13 -137 36 -28 70 -25 104 9 35 35 37
71 7 105 -28 31 -65 40 -98 23z"/>
<path d="M7675 25176 c-117 -37 -216 -123 -268 -233 -26 -57 -32 -83 -35 -159
-5 -111 11 -175 67 -262 146 -225 475 -258 666 -67 149 150 167 392 41 562
-50 69 -143 135 -219 158 -61 18 -196 19 -252 1z"/>
<path d="M8650 25176 c-72 -20 -130 -54 -191 -112 -216 -207 -152 -573 124
-699 215 -99 467 -4 570 213 30 63 32 73 32 182 0 111 -1 118 -33 183 -92 186
-309 286 -502 233z"/>
<path d="M11545 25176 c-67 -21 -125 -55 -177 -103 -219 -205 -162 -566 110
-700 74 -37 79 -38 186 -38 104 0 115 2 179 32 272 129 340 472 136 688 -60
63 -112 96 -188 119 -64 19 -189 20 -246 2z"/>
<path d="M15069 25161 c-38 -39 -38 -74 1 -113 26 -25 36 -29 63 -24 73 15 97
96 43 142 -37 32 -71 30 -107 -5z"/>
<path d="M17173 25110 c-66 -27 -54 -139 16 -155 33 -7 85 15 95 40 17 46 1
91 -41 113 -25 14 -40 14 -70 2z"/>
<path d="M18159 24982 c-211 -55 -350 -273 -310 -487 34 -187 173 -323 361
-357 224 -39 450 127 491 361 31 175 -67 368 -227 449 -106 53 -201 63 -315
34z"/>
<path d="M15188 24903 c17 -2 47 -2 65 0 17 2 3 4 -33 4 -36 0 -50 -2 -32 -4z"/>
<path d="M15118 24893 c6 -2 18 -2 25 0 6 3 1 5 -13 5 -14 0 -19 -2 -12 -5z"/>
<path d="M15310 24890 c34 -11 60 -11 35 0 -11 5 -29 8 -40 8 -16 0 -15 -2 5
-8z"/>
<path d="M6044 24869 c-29 -14 -54 -61 -54 -99 0 -48 55 -100 107 -100 48 0
81 22 100 67 37 90 -62 176 -153 132z"/>
<path d="M15002 24849 c-210 -120 -279 -400 -149 -605 36 -58 121 -132 180
-159 122 -55 249 -54 372 4 220 102 308 369 196 590 -31 60 -106 138 -166 172
-72 41 -80 36 -9 -7 75 -45 111 -80 152 -148 142 -233 32 -528 -228 -616 -53
-18 -82 -21 -155 -18 -100 4 -167 29 -240 87 -193 156 -208 449 -32 625 29 30
76 65 103 79 27 15 45 26 39 26 -5 1 -34 -13 -63 -30z"/>
<path d="M17110 24870 c-147 -27 -259 -112 -324 -249 -29 -62 -31 -73 -31
-181 0 -109 2 -118 32 -181 18 -36 55 -89 84 -118 46 -47 150 -111 181 -111 7
0 -15 13 -50 30 -83 39 -164 121 -204 206 -43 91 -50 210 -18 304 45 133 138
225 271 270 52 18 81 21 151 18 75 -4 96 -9 161 -41 91 -45 156 -112 200 -205
30 -62 32 -75 32 -172 0 -97 -2 -110 -32 -173 -41 -87 -121 -168 -205 -207
-35 -17 -57 -30 -50 -30 29 0 120 56 173 106 254 243 113 677 -238 734 -65 11
-69 11 -133 0z"/>
<path d="M17641 24836 c-45 -25 -64 -91 -40 -139 19 -38 51 -57 97 -57 35 0
49 6 73 29 65 65 21 181 -68 181 -21 -1 -49 -7 -62 -14z"/>
<path d="M14197 24760 c-62 -16 -110 -45 -158 -97 -183 -195 -66 -507 202
-539 100 -12 223 40 283 119 97 127 91 300 -13 420 -67 76 -215 121 -314 97z"/>
<path d="M16555 24725 c-16 -15 -25 -36 -25 -55 0 -71 91 -107 140 -55 72 77
-41 185 -115 110z"/>
<path d="M19704 24721 c-67 -29 -84 -118 -35 -173 25 -28 36 -33 76 -33 40 0
51 5 76 33 39 44 40 99 2 142 -30 33 -82 46 -119 31z"/>
<path d="M5765 24582 c-77 -26 -138 -66 -188 -122 -253 -282 -58 -720 321
-720 324 0 530 341 381 631 -26 51 -101 134 -151 165 -98 62 -258 82 -363 46z"/>
<path d="M9204 24516 c-73 -73 -24 -176 82 -176 54 0 94 44 94 105 0 100 -105
142 -176 71z"/>
<path d="M13530 24489 c-55 -25 -105 -71 -133 -124 -31 -57 -30 -173 0 -231
51 -96 128 -144 233 -144 151 0 262 108 263 257 2 188 -194 319 -363 242z"/>
<path d="M8244 24466 c-56 -47 -20 -146 52 -146 34 0 84 51 84 85 0 34 -50 85
-84 85 -14 0 -37 -11 -52 -24z"/>
<path d="M13062 24474 c-49 -25 -75 -69 -80 -133 -6 -97 55 -161 153 -161 90
0 155 62 155 148 0 56 -24 106 -63 134 -40 29 -121 34 -165 12z"/>
<path d="M5260 24457 c-50 -25 -61 -95 -21 -131 10 -9 31 -19 49 -22 26 -5 36
-1 62 24 43 44 36 107 -17 131 -30 14 -42 14 -73 -2z"/>
<path d="M12154 24421 c-67 -29 -84 -118 -35 -173 25 -28 36 -33 76 -33 40 0
51 5 76 33 39 44 40 99 2 142 -30 33 -82 46 -119 31z"/>
<path d="M15743 24415 c-60 -42 -24 -144 52 -144 53 0 91 48 80 100 -8 36 -39
59 -80 59 -17 0 -40 -7 -52 -15z"/>
<path d="M19555 24413 c-121 -44 -204 -118 -259 -233 -38 -82 -48 -213 -22
-302 37 -129 154 -248 283 -288 282 -87 563 118 563 410 0 174 -96 323 -256
397 -78 36 -230 44 -309 16z"/>
<path d="M9999 24401 c-117 -37 -217 -128 -271 -246 -20 -43 -23 -66 -23 -165
0 -109 2 -119 32 -183 42 -89 121 -168 210 -210 64 -30 74 -32 183 -32 105 0
120 2 174 28 160 75 256 223 256 397 0 199 -139 375 -331 419 -67 16 -167 12
-230 -8z"/>
<path d="M17734 24406 c-58 -25 -65 -103 -12 -140 78 -55 170 47 106 118 -30
32 -56 38 -94 22z"/>
<path d="M7120 24397 c-128 -36 -220 -147 -236 -282 -5 -40 -1 -71 15 -126 19
-61 31 -81 79 -129 60 -60 111 -84 204 -96 72 -10 173 25 236 81 74 67 106
138 106 240 1 68 -3 89 -27 136 -32 66 -100 132 -162 160 -57 25 -157 33 -215
16z"/>
<path d="M11035 24381 c-143 -37 -231 -186 -191 -322 31 -107 114 -180 221
-194 174 -23 331 154 286 322 -18 65 -70 133 -126 164 -54 30 -138 44 -190 30z"/>
<path d="M6503 24329 c-122 -60 -114 -236 11 -284 57 -22 106 -15 153 21 94
72 77 216 -31 265 -53 24 -82 24 -133 -2z"/>
<path d="M12627 24297 c-158 -49 -199 -260 -71 -365 138 -114 344 -16 344 163
0 67 -25 121 -75 163 -60 49 -124 62 -198 39z"/>
<path d="M8504 24276 c-54 -46 -30 -127 43 -142 27 -5 37 -1 63 24 39 39 39
74 1 113 -36 35 -70 37 -107 5z"/>
<path d="M9016 24279 c-121 -20 -250 -118 -307 -234 -163 -331 139 -702 496
-610 166 43 287 178 317 353 38 225 -121 448 -351 492 -60 11 -85 11 -155 -1z"/>
<path d="M7988 24250 c-105 -27 -217 -111 -271 -202 -68 -117 -76 -279 -19
-401 60 -129 192 -227 331 -247 186 -26 374 76 453 247 64 136 46 317 -42 434
-84 112 -193 170 -329 175 -47 2 -103 -1 -123 -6z"/>
<path d="M11745 24231 c-83 -21 -146 -83 -165 -162 -41 -171 139 -315 297
-238 71 34 123 115 123 190 0 128 -136 239 -255 210z"/>
<path d="M18763 24192 c-72 -24 -138 -73 -173 -129 -38 -60 -50 -102 -50 -180
0 -127 71 -237 188 -291 76 -35 183 -37 257 -4 192 87 254 330 127 497 -76
101 -229 148 -349 107z"/>
<path d="M15823 24185 c-173 -47 -293 -179 -325 -355 -48 -275 213 -538 489
-492 192 32 332 171 365 360 38 225 -113 443 -340 491 -69 14 -124 13 -189 -4z"/>
<path d="M14562 24157 c-32 -34 -30 -89 4 -116 36 -28 79 -27 109 4 31 30 32
73 4 109 -27 35 -86 36 -117 3z"/>
<path d="M17731 24154 c-178 -48 -306 -202 -318 -384 -13 -185 80 -345 243
-422 237 -111 504 1 594 249 19 53 22 77 18 161 -3 86 -8 107 -36 164 -92 188
-303 285 -501 232z"/>
<path d="M14837 24037 c-52 -17 -103 -60 -128 -109 -17 -33 -20 -55 -17 -109
3 -58 8 -74 34 -106 86 -107 213 -122 313 -37 108 93 89 273 -36 342 -50 27
-116 35 -166 19z"/>
<path d="M14107 24019 c-142 -33 -274 -165 -313 -313 -93 -347 272 -651 599
-499 253 119 330 436 160 660 -43 56 -137 120 -210 143 -69 21 -168 25 -236 9z"/>
<path d="M17092 24018 c13 -3 52 -6 88 -6 36 0 75 3 88 6 13 4 -27 7 -88 7
-61 0 -101 -3 -88 -7z"/>
<path d="M13120 23984 c-206 -55 -346 -274 -310 -484 41 -234 260 -395 490
-360 344 54 489 469 252 722 -110 117 -275 164 -432 122z"/>
<path d="M11393 23940 c-66 -27 -54 -139 16 -155 33 -7 85 15 95 40 17 46 1
91 -41 113 -25 14 -40 14 -70 2z"/>
<path d="M17181 23936 c-51 -29 -68 -112 -31 -159 64 -81 190 -37 190 66 0 31
-7 46 -34 73 -37 37 -81 44 -125 20z"/>
<path d="M6530 23909 c-120 -23 -245 -121 -300 -233 -129 -261 28 -564 320
-618 163 -31 349 56 437 203 155 259 3 592 -296 649 -62 12 -98 11 -161 -1z"/>
<path d="M10692 23883 c-105 -52 -111 -211 -10 -273 47 -28 125 -27 168 3 95
64 92 208 -6 264 -46 27 -106 29 -152 6z"/>
<path d="M12227 23863 c18 -2 50 -2 70 0 21 2 7 4 -32 4 -38 0 -55 -2 -38 -4z"/>
<path d="M12099 23836 c-65 -26 -101 -51 -146 -98 -34 -36 -93 -126 -93 -142
0 -5 16 17 36 50 61 102 133 160 242 195 31 10 48 18 37 18 -11 0 -45 -10 -76
-23z"/>
<path d="M12385 23843 c122 -45 205 -119 258 -231 62 -132 44 -307 -42 -422
-55 -73 -130 -126 -213 -151 -200 -61 -410 28 -503 214 -19 38 -35 64 -35 58
0 -29 64 -134 108 -178 173 -173 447 -170 616 6 129 136 158 315 76 488 -50
109 -176 211 -280 228 -28 5 -25 3 15 -12z"/>
<path d="M7441 23786 c-45 -25 -64 -91 -40 -139 19 -38 51 -57 97 -57 35 0 49
6 73 29 65 65 21 181 -68 181 -21 -1 -49 -7 -62 -14z"/>
<path d="M18368 23785 c-106 -60 -43 -220 77 -197 32 6 73 44 81 76 22 89 -79
166 -158 121z"/>
<path d="M11649 23711 c-35 -36 -37 -70 -5 -107 46 -54 127 -30 142 43 5 27 1
37 -24 63 -39 39 -74 39 -113 1z"/>
<path d="M15245 23708 c-37 -20 -55 -52 -55 -96 0 -35 6 -49 29 -73 24 -24 38
-29 76 -29 40 0 52 5 76 31 32 34 38 78 17 124 -21 47 -96 69 -143 43z"/>
<path d="M16476 23699 c-20 -16 -26 -29 -26 -60 0 -52 27 -79 79 -79 73 0 108
84 56 135 -30 31 -73 32 -109 4z"/>
<path d="M11175 23677 c-119 -40 -216 -125 -268 -234 -43 -93 -50 -219 -17
-317 114 -345 582 -401 776 -94 112 176 71 431 -89 562 -80 65 -149 90 -262
93 -63 2 -115 -2 -140 -10z"/>
<path d="M6010 23653 c-61 -22 -79 -95 -35 -138 51 -52 135 -17 135 56 0 37
-26 79 -49 79 -5 0 -15 2 -23 4 -7 3 -20 2 -28 -1z"/>
<path d="M9623 23625 c-57 -24 -83 -99 -54 -154 15 -27 62 -51 102 -51 43 0
99 56 99 99 0 84 -74 137 -147 106z"/>
<path d="M8594 23600 c-35 -14 -64 -59 -64 -99 0 -100 121 -145 184 -70 73 87
-16 211 -120 169z"/>
<path d="M11845 23550 c-4 -17 -5 -34 -2 -36 2 -3 7 10 11 27 8 42 0 50 -9 9z"/>
<path d="M20050 23560 c-121 -26 -246 -123 -300 -234 -128 -264 27 -564 320
-618 120 -23 261 19 357 106 240 217 162 611 -142 725 -65 25 -172 34 -235 21z"/>
<path d="M16590 23520 c-213 -40 -361 -211 -362 -421 -1 -96 21 -171 72 -247
46 -68 92 -109 166 -146 297 -149 647 86 621 418 -13 173 -119 314 -281 375
-63 23 -156 32 -216 21z"/>
<path d="M18500 23519 c-253 -43 -416 -306 -341 -548 62 -200 240 -324 445
-308 175 13 313 118 377 286 29 77 29 203 0 284 -71 200 -274 321 -481 286z"/>
<path d="M14900 23499 c-121 -24 -238 -117 -297 -237 -37 -74 -38 -79 -38
-186 0 -104 2 -115 32 -179 85 -178 274 -281 458 -250 192 33 339 179 364 363
41 302 -219 548 -519 489z"/>
<path d="M7418 23490 c-26 -5 -73 -20 -104 -34 -280 -128 -341 -495 -119 -705
196 -186 506 -151 656 72 174 261 18 616 -292 666 -71 12 -74 12 -141 1z"/>
<path d="M10219 23481 c-130 -42 -240 -151 -279 -278 -57 -186 14 -391 172
-494 87 -56 151 -72 262 -67 117 5 201 41 282 122 81 81 117 165 122 282 5
113 -12 178 -70 264 -104 156 -310 228 -489 171z"/>
<path d="M11833 23440 c0 -36 2 -50 4 -32 2 17 2 47 0 65 -2 17 -4 3 -4 -33z"/>
<path d="M19230 23475 c-60 -19 -109 -62 -145 -126 -63 -114 -28 -263 78 -336
154 -105 351 -34 403 145 40 136 -45 283 -186 322 -47 13 -96 11 -150 -5z"/>
<path d="M13685 23345 c-51 -50 -15 -135 58 -135 54 0 95 57 76 107 -22 57
-91 72 -134 28z"/>
<path d="M11841 23344 c0 -11 3 -14 6 -6 3 7 2 16 -1 19 -3 4 -6 -2 -5 -13z"/>
<path d="M9249 23327 c-87 -30 -167 -91 -218 -168 -57 -86 -74 -150 -69 -264
3 -80 8 -101 38 -161 43 -88 116 -161 204 -204 60 -30 81 -35 161 -38 114 -5
178 12 265 70 247 164 254 535 13 708 -112 80 -263 102 -394 57z"/>
<path d="M8352 23319 c-170 -33 -313 -184 -341 -359 -55 -340 307 -605 617
-454 66 32 160 122 191 182 167 327 -110 702 -467 631z"/>
<path d="M12763 23234 c-49 -49 -10 -134 61 -134 62 0 100 63 72 118 -26 51
-90 59 -133 16z"/>
<path d="M15655 23243 c-30 -7 -72 -51 -78 -80 -14 -74 43 -138 116 -129 108
13 131 160 32 202 -36 15 -37 15 -70 7z"/>
<path d="M15992 23165 c-36 -30 -46 -75 -28 -118 18 -44 39 -59 89 -64 36 -4
48 -1 75 22 54 46 53 133 -4 170 -36 24 -97 19 -132 -10z"/>
<path d="M17185 23135 c-65 -64 11 -163 100 -129 23 9 48 62 41 90 -16 63 -96
85 -141 39z"/>
<path d="M20645 22975 c-16 -15 -25 -36 -25 -55 0 -71 91 -107 140 -55 72 77
-41 185 -115 110z"/>
<path d="M15680 22936 c-339 -73 -456 -498 -203 -737 62 -59 139 -97 229 -112
179 -31 375 73 456 242 28 57 33 80 36 163 6 141 -24 224 -117 321 -59 61
-130 102 -212 122 -75 17 -114 18 -189 1z"/>
<path d="M10892 22923 c-7 -3 -19 -18 -28 -35 -30 -57 6 -118 69 -118 40 0 62
14 77 50 15 35 0 84 -31 100 -19 10 -65 12 -87 3z"/>
<path d="M17280 22899 c-175 -70 -180 -322 -8 -394 85 -35 184 -11 246 59 118
135 18 347 -163 345 -27 0 -61 -5 -75 -10z"/>
<path d="M19120 22806 c-132 -28 -244 -118 -303 -243 -40 -87 -50 -219 -22
-304 53 -161 183 -273 349 -302 242 -41 480 148 494 394 8 138 -32 244 -127
339 -63 64 -138 103 -225 119 -72 13 -94 13 -166 -3z"/>
<path d="M20530 22744 c-115 -31 -219 -117 -272 -226 -129 -263 36 -574 328
-618 228 -35 442 124 486 358 23 122 -19 262 -106 359 -108 119 -279 169 -436
127z"/>
<path d="M16279 22701 c-23 -23 -29 -38 -29 -71 0 -52 13 -76 50 -95 49 -25
88 -19 126 19 70 70 26 175 -74 176 -35 0 -49 -6 -73 -29z"/>
<path d="M19734 22721 c-67 -29 -84 -118 -35 -173 25 -28 36 -33 76 -33 40 0
51 5 76 33 39 44 40 99 2 142 -30 33 -82 46 -119 31z"/>
<path d="M7840 22672 c-39 -39 -39 -74 -1 -113 36 -35 70 -37 107 -5 54 46 30
127 -43 142 -27 5 -37 1 -63 -24z"/>
<path d="M8899 22605 c-15 -8 -32 -28 -38 -45 -28 -82 73 -147 134 -85 32 31
32 76 3 109 -29 32 -66 40 -99 21z"/>
<path d="M15145 22565 c-34 -33 -34 -83 0 -115 77 -72 185 41 110 115 -15 16
-36 25 -55 25 -19 0 -40 -9 -55 -25z"/>
<path d="M16983 22556 c-33 -15 -63 -60 -63 -96 0 -54 57 -110 112 -110 35 0
83 34 98 69 10 25 10 40 1 72 -19 63 -86 92 -148 65z"/>
<path d="M17791 22559 c-73 -14 -168 -65 -220 -117 -170 -170 -171 -442 -1
-612 250 -250 669 -113 732 240 50 286 -221 546 -511 489z"/>
<path d="M27145 22460 c-191 -30 -332 -170 -365 -363 -15 -84 -2 -165 38 -251
130 -274 493 -331 703 -109 182 193 147 506 -74 654 -89 59 -202 85 -302 69z"/>
<path d="M16503 22435 c-155 -42 -275 -164 -314 -318 -20 -80 -8 -202 28 -277
83 -178 276 -282 460 -250 143 25 256 108 320 237 32 65 37 86 41 162 7 140
-32 244 -124 334 -108 106 -269 150 -411 112z"/>
<path d="M17261 22419 c-35 -14 -50 -39 -51 -81 0 -28 6 -41 26 -57 80 -63
179 38 112 113 -28 30 -55 38 -87 25z"/>
<path d="M19838 22390 c-82 -44 -132 -151 -109 -235 26 -96 94 -155 187 -163
194 -16 307 205 178 348 -19 21 -50 45 -68 54 -47 22 -141 20 -188 -4z"/>
<path d="M14747 22199 c-29 -17 -46 -67 -36 -103 20 -69 99 -88 150 -37 41 41
37 102 -10 138 -20 15 -80 16 -104 2z"/>
<path d="M18485 22198 c-68 -37 -56 -135 19 -154 28 -7 81 18 90 41 29 78 -41
151 -109 113z"/>
<path d="M21149 22171 c-17 -18 -29 -40 -29 -56 0 -16 12 -38 29 -56 39 -38
74 -38 113 1 25 26 29 36 24 63 -7 39 -48 77 -82 77 -15 0 -38 -12 -55 -29z"/>
<path d="M14200 22114 c-146 -39 -266 -161 -305 -309 -64 -247 97 -491 353
-536 132 -23 277 27 376 130 128 135 157 316 78 485 -86 183 -304 283 -502
230z"/>
<path d="M15137 22090 c-78 -28 -122 -57 -180 -119 -155 -165 -153 -420 4
-586 96 -101 195 -140 340 -133 76 4 97 9 162 41 323 160 323 614 0 774 -69
34 -84 38 -172 40 -77 3 -108 -1 -154 -17z"/>
<path d="M17274 22079 c-44 -12 -66 -41 -71 -93 -5 -42 -3 -48 30 -81 50 -50
114 -47 159 9 22 27 23 94 2 125 -13 19 -74 54 -86 50 -2 0 -17 -5 -34 -10z"/>
<path d="M13773 22056 c-61 -53 -21 -156 62 -156 21 0 44 9 62 24 61 53 21
156 -62 156 -21 0 -44 -9 -62 -24z"/>
<path d="M13240 22036 c-123 -35 -226 -119 -282 -233 -32 -65 -33 -72 -33
-183 0 -108 2 -119 31 -181 105 -221 354 -314 572 -214 167 76 262 239 249
425 -18 265 -284 456 -537 386z"/>
<path d="M12810 22013 c-28 -10 -59 -45 -65 -74 -18 -83 92 -140 157 -82 46
41 26 131 -33 152 -35 12 -37 12 -59 4z"/>
<path d="M12252 21942 c-301 -107 -391 -493 -167 -717 191 -191 520 -158 666
67 56 87 72 151 67 262 -3 76 -9 102 -35 159 -42 89 -121 168 -210 210 -60 28
-80 32 -168 34 -78 3 -112 -1 -153 -15z"/>
<path d="M26594 21950 c-55 -22 -70 -95 -29 -135 51 -52 135 -17 135 56 0 37
-26 79 -49 79 -5 0 -15 2 -23 4 -7 3 -23 1 -34 -4z"/>
<path d="M18505 21936 c-216 -53 -362 -268 -327 -482 31 -188 174 -333 361
-365 280 -50 541 212 493 493 -43 251 -284 413 -527 354z"/>
<path d="M21060 21936 c-341 -76 -456 -508 -197 -742 254 -229 663 -83 718
256 36 223 -124 448 -350 490 -67 12 -101 12 -171 -4z"/>
<path d="M19533 21925 c-77 -21 -130 -51 -188 -106 -259 -245 -121 -683 234
-740 229 -36 453 129 491 364 48 303 -240 562 -537 482z"/>
<path d="M11825 21888 c-31 -18 -44 -40 -45 -76 0 -46 16 -71 56 -88 29 -12
39 -12 68 0 19 8 39 23 45 34 43 81 -47 174 -124 130z"/>
<path d="M11370 21819 c-172 -28 -318 -176 -352 -357 -15 -80 0 -182 38 -260
32 -66 122 -160 182 -191 270 -137 584 20 633 317 38 230 -126 453 -361 491
-36 6 -69 10 -75 10 -5 -1 -35 -5 -65 -10z"/>
<path d="M15840 21803 c-63 -24 -82 -109 -34 -154 37 -35 98 -33 130 4 31 36
32 87 2 121 -23 26 -70 40 -98 29z"/>
<path d="M20375 21752 c-112 -54 -155 -178 -100 -289 37 -73 89 -106 174 -111
55 -3 74 1 111 20 69 37 104 94 108 176 4 83 -23 142 -86 187 -55 38 -146 46
-207 17z"/>
<path d="M17265 21739 c-106 -16 -182 -56 -258 -138 -180 -193 -140 -508 83
-651 265 -170 614 -13 663 299 43 282 -206 533 -488 490z"/>
<path d="M10847 21689 c-11 -6 -25 -26 -33 -45 -40 -95 84 -172 150 -93 35 41
34 83 -3 120 -31 31 -79 38 -114 18z"/>
<path d="M26580 21657 c-132 -30 -237 -113 -297 -235 -37 -75 -38 -78 -38
-191 0 -110 2 -119 32 -182 84 -171 278 -273 459 -242 144 25 264 117 327 250
30 63 32 75 32 173 0 86 -5 115 -24 163 -76 191 -295 309 -491 264z"/>
<path d="M10400 21626 c-123 -35 -226 -119 -282 -233 -32 -65 -33 -72 -33
-183 0 -108 2 -119 31 -181 105 -221 354 -314 572 -214 166 76 261 237 250
423 -15 264 -284 458 -538 388z"/>
<path d="M27645 21628 c-37 -20 -55 -52 -55 -96 0 -63 40 -102 105 -102 64 0
105 39 105 100 0 79 -88 135 -155 98z"/>
<path d="M15985 21582 c-160 -55 -267 -180 -295 -345 -32 -184 71 -376 247
-460 64 -30 75 -32 178 -32 103 0 114 2 178 32 179 85 281 274 250 459 -29
165 -142 298 -296 346 -75 23 -195 23 -262 0z"/>
<path d="M9958 21575 c-78 -44 -56 -157 33 -171 31 -5 42 -1 70 24 26 23 33
37 33 66 0 68 -77 114 -136 81z"/>
<path d="M17894 21502 c-55 -44 -59 -109 -10 -158 71 -71 176 -29 176 71 0 65
-39 105 -102 105 -26 0 -52 -7 -64 -18z"/>
<path d="M16674 21476 c-56 -47 -20 -146 52 -146 34 0 84 51 84 85 0 34 -50
85 -84 85 -14 0 -37 -11 -52 -24z"/>
<path d="M27258 21471 c-28 -25 -33 -36 -33 -76 0 -40 5 -51 33 -76 87 -78
221 17 168 119 -35 69 -112 83 -168 33z"/>
<path d="M9511 21459 c-24 -5 -71 -21 -105 -37 -222 -105 -309 -371 -195 -594
31 -60 125 -150 191 -182 309 -151 670 111 618 448 -15 99 -58 181 -128 248
-70 67 -122 95 -211 114 -73 15 -105 16 -170 3z"/>
<path d="M8987 21344 c-76 -42 -54 -156 34 -170 31 -5 42 -1 70 24 26 23 33
37 33 66 0 68 -77 114 -137 80z"/>
<path d="M21615 21318 c-54 -29 -60 -84 -16 -129 33 -33 50 -35 91 -14 50 26
57 94 14 133 -27 24 -58 28 -89 10z"/>
<path d="M14594 21286 c-164 -76 -145 -319 30 -371 95 -29 194 11 236 95 39
80 32 159 -23 225 -61 74 -152 93 -243 51z"/>
<path d="M20159 21265 c-55 -30 -59 -103 -7 -139 42 -30 91 -17 116 31 18 33
15 59 -10 87 -29 32 -66 40 -99 21z"/>
<path d="M13758 21256 c-103 -28 -179 -113 -193 -217 -14 -99 47 -213 139
-262 58 -30 174 -31 231 0 114 61 167 183 132 304 -21 70 -65 122 -130 153
-67 32 -120 38 -179 22z"/>
<path d="M27560 21217 c-124 -35 -226 -120 -282 -234 -32 -65 -33 -73 -33
-183 0 -108 2 -119 31 -181 68 -142 193 -233 349 -253 121 -15 277 44 361 137
72 80 107 163 112 268 9 188 -79 338 -246 417 -62 29 -86 35 -160 38 -52 2
-105 -1 -132 -9z"/>
<path d="M12794 21177 c-114 -43 -182 -150 -171 -267 12 -137 115 -230 255
-230 76 0 124 19 176 68 82 78 101 199 49 303 -57 112 -196 168 -309 126z"/>
<path d="M14235 21180 c-67 -27 -94 -119 -53 -180 46 -68 138 -73 192 -10 33
40 40 80 22 124 -25 60 -101 91 -161 66z"/>
<path d="M8542 21162 c-306 -109 -390 -501 -155 -723 215 -204 565 -136 688
133 100 219 7 468 -214 571 -58 28 -78 32 -166 34 -78 3 -112 -1 -153 -15z"/>
<path d="M20550 21145 c-58 -18 -113 -64 -148 -123 -23 -41 -27 -58 -27 -127
0 -69 4 -86 27 -127 48 -81 142 -138 228 -138 56 0 132 31 177 73 60 54 86
113 86 192 0 79 -26 138 -86 192 -72 66 -164 87 -257 58z"/>
<path d="M26014 21132 c-55 -44 -59 -109 -10 -158 38 -38 77 -44 126 -19 37
19 50 43 50 95 0 59 -42 100 -102 100 -26 0 -52 -7 -64 -18z"/>
<path d="M15161 21114 c-214 -57 -350 -268 -313 -484 31 -184 161 -318 343
-356 143 -30 290 18 394 127 299 314 -5 826 -424 713z"/>
<path d="M18009 21097 c-300 -102 -394 -473 -178 -702 97 -103 190 -139 337
-133 83 3 106 8 163 36 170 82 270 270 241 454 -41 267 -310 431 -563 345z"/>
<path d="M19023 21095 c-69 -35 -106 -88 -111 -165 -5 -67 9 -118 45 -161 95
-113 289 -88 352 45 87 185 -103 372 -286 281z"/>
<path d="M11999 21097 c-97 -36 -144 -108 -137 -207 8 -111 86 -184 198 -184
71 0 131 31 167 86 24 36 28 52 28 113 0 61 -4 77 -28 113 -46 71 -152 107
-228 79z"/>
<path d="M21510 21094 c-210 -56 -349 -271 -312 -484 61 -355 489 -489 736
-231 95 101 139 237 117 363 -45 257 -293 418 -541 352z"/>
<path d="M13281 21064 c-62 -52 -58 -147 8 -191 106 -72 235 43 176 157 -32
62 -129 80 -184 34z"/>
<path d="M10985 21028 c-86 -79 -34 -208 83 -208 77 0 135 77 113 150 -27 91
-128 120 -196 58z"/>
<path d="M19800 21009 c-121 -24 -244 -118 -300 -232 -130 -264 25 -565 320
-619 127 -24 273 24 371 121 246 246 114 666 -230 731 -62 12 -98 11 -161 -1z"/>
<path d="M12382 20937 c-45 -48 -11 -127 54 -127 45 0 74 29 74 75 0 69 -81
102 -128 52z"/>
<path d="M8035 20928 c-15 -14 -28 -38 -31 -59 -5 -31 -1 -42 24 -70 24 -27
36 -33 67 -32 69 2 112 71 81 132 -29 55 -95 69 -141 29z"/>
<path d="M18673 20901 c-62 -39 -72 -109 -24 -163 25 -28 36 -33 76 -33 40 0
51 5 76 33 81 91 -26 227 -128 163z"/>
<path d="M11355 20863 c-120 -43 -205 -119 -257 -228 -114 -244 17 -530 276
-600 232 -63 470 76 532 310 52 195 -46 405 -232 496 -61 30 -78 34 -168 37
-77 2 -113 -2 -151 -15z"/>
<path d="M14260 20839 c-168 -33 -313 -185 -342 -361 -29 -176 68 -365 230
-447 34 -17 67 -31 73 -31 6 0 -20 16 -58 35 -87 43 -153 112 -196 203 -30 63
-32 74 -32 177 0 103 2 114 32 177 41 88 113 160 201 201 63 30 74 32 177 32
103 0 114 -2 177 -32 91 -43 160 -109 203 -196 19 -38 35 -64 35 -58 0 29 -66
138 -111 183 -55 55 -147 102 -228 118 -62 12 -98 11 -161 -1z"/>
<path d="M26140 20829 c-218 -43 -380 -273 -342 -489 24 -134 113 -260 222
-315 69 -35 76 -31 10 6 -79 43 -136 103 -178 188 -36 73 -37 78 -37 186 0
108 1 113 38 187 141 287 528 315 726 53 17 -23 19 -24 10 -6 -20 41 -103 118
-158 145 -99 51 -191 65 -291 45z"/>
<path d="M10094 20816 c-96 -42 -100 -177 -6 -222 50 -24 100 -13 140 31 59
64 37 157 -44 191 -41 17 -50 17 -90 0z"/>
<path d="M7734 20801 c-23 -10 -54 -36 -70 -56 -24 -32 -29 -47 -29 -100 0
-53 4 -67 29 -99 102 -134 310 -67 310 99 0 124 -129 208 -240 156z"/>
<path d="M10814 20800 c-11 -4 -33 -23 -48 -41 -24 -29 -28 -39 -24 -81 11
-114 139 -154 213 -67 47 57 27 151 -39 183 -37 17 -69 19 -102 6z"/>
<path d="M17475 20775 c-51 -50 -15 -135 58 -135 44 0 77 34 77 81 0 72 -84
106 -135 54z"/>
<path d="M15815 20771 c-51 -21 -73 -76 -50 -125 30 -62 113 -72 155 -19 35
45 17 117 -35 141 -30 14 -42 14 -70 3z"/>
<path d="M13235 20723 c-78 -28 -138 -68 -188 -123 -194 -215 -130 -549 130
-677 65 -32 86 -37 162 -41 145 -7 244 32 340 133 203 214 136 562 -132 686
-63 29 -84 34 -167 36 -72 3 -107 -1 -145 -14z"/>
<path d="M21004 20731 c-67 -29 -84 -118 -35 -173 25 -28 36 -33 76 -33 40 0
51 5 76 33 39 44 40 99 2 142 -30 33 -82 46 -119 31z"/>
<path d="M26920 20699 c-98 -39 -154 -147 -130 -248 40 -168 252 -219 368 -87
31 35 52 90 52 135 0 75 -56 161 -124 192 -44 20 -126 24 -166 8z"/>
<path d="M12320 20672 c-86 -23 -144 -58 -208 -126 -237 -250 -95 -659 248
-718 324 -56 589 274 470 583 -77 200 -305 317 -510 261z"/>
<path d="M8079 20645 c-95 -53 -26 -199 78 -164 61 20 82 110 34 153 -26 24
-81 29 -112 11z"/>
<path d="M9220 20592 c-45 -22 -75 -79 -66 -127 8 -43 57 -92 100 -100 70 -14
146 49 146 120 0 43 -35 94 -75 111 -45 18 -62 18 -105 -4z"/>
<path d="M10430 20596 c-131 -28 -237 -112 -297 -233 -32 -65 -37 -86 -41
-162 -11 -233 134 -415 362 -454 184 -31 375 72 457 246 32 68 34 78 34 182 0
103 -2 114 -32 178 -61 128 -181 221 -317 246 -72 13 -95 13 -166 -3z"/>
<path d="M26606 20597 c3 -10 9 -15 12 -12 3 3 0 11 -7 18 -10 9 -11 8 -5 -6z"/>
<path d="M9883 20574 c-107 -53 -84 -208 34 -230 69 -13 143 50 143 121 0 43
-35 94 -75 111 -43 18 -62 17 -102 -2z"/>
<path d="M26621 20565 c1 -19 18 -51 18 -35 0 8 -4 22 -9 30 -5 8 -9 11 -9 5z"/>
<path d="M18855 20546 c-216 -54 -360 -266 -326 -482 36 -235 262 -403 488
-366 192 32 332 171 365 361 51 299 -231 560 -527 487z"/>
<path d="M22144 20546 c-35 -15 -44 -32 -44 -81 0 -24 7 -39 26 -54 80 -63
179 38 112 113 -30 32 -56 38 -94 22z"/>
<path d="M14761 20504 c0 -11 3 -14 6 -6 3 7 2 16 -1 19 -3 4 -6 -2 -5 -13z"/>
<path d="M26641 20494 c0 -11 3 -14 6 -6 3 7 2 16 -1 19 -3 4 -6 -2 -5 -13z"/>
<path d="M27994 20466 c-54 -46 -30 -127 43 -142 27 -5 37 -1 63 24 39 39 39
74 1 113 -36 35 -70 37 -107 5z"/>
<path d="M14773 20415 c0 -33 2 -45 4 -27 2 18 2 45 0 60 -2 15 -4 0 -4 -33z"/>
<path d="M20595 20446 c-215 -52 -362 -269 -327 -481 32 -192 171 -333 362
-367 279 -49 540 213 492 494 -43 251 -284 413 -527 354z"/>
<path d="M26653 20405 c0 -33 2 -45 4 -27 2 18 2 45 0 60 -2 15 -4 0 -4 -33z"/>
<path d="M7994 20372 c-115 -40 -200 -117 -257 -231 -27 -56 -32 -77 -35 -160
-3 -79 0 -107 17 -156 80 -226 316 -345 543 -275 279 86 388 431 213 669 -51
70 -140 133 -219 156 -68 20 -198 19 -262 -3z"/>
<path d="M9475 20376 c-144 -35 -261 -147 -310 -295 -28 -85 -18 -217 22 -304
144 -307 561 -342 753 -62 15 22 37 68 50 102 19 53 22 77 18 160 -3 85 -8
107 -36 164 -90 186 -296 284 -497 235z"/>
<path d="M14761 20324 c0 -11 3 -14 6 -6 3 7 2 16 -1 19 -3 4 -6 -2 -5 -13z"/>
<path d="M14836 20309 c-35 -41 -34 -83 3 -120 50 -49 121 -37 147 27 40 95
-84 172 -150 93z"/>
<path d="M26641 20314 c0 -11 3 -14 6 -6 3 7 2 16 -1 19 -3 4 -6 -2 -5 -13z"/>
<path d="M27282 20313 c-7 -3 -19 -18 -28 -35 -30 -57 6 -118 69 -118 40 0 62
14 77 50 15 35 0 84 -31 100 -19 10 -65 12 -87 3z"/>
<path d="M14738 20253 c-38 -106 -145 -205 -263 -244 -37 -12 -46 -18 -25 -14
60 9 143 56 201 114 52 53 115 158 107 181 -2 6 -11 -11 -20 -37z"/>
<path d="M26631 20283 c-1 -6 -4 -20 -7 -30 -5 -17 -5 -17 6 0 6 10 9 23 6 30
-3 9 -5 9 -5 0z"/>
<path d="M22055 20266 c-169 -41 -297 -180 -327 -355 -48 -279 210 -539 489
-493 192 32 333 174 365 367 49 293 -235 552 -527 481z"/>
<path d="M8765 20255 c-99 -37 -167 -136 -167 -243 0 -101 46 -179 133 -227
44 -24 66 -29 119 -29 75 1 121 18 174 64 59 53 81 102 81 190 0 54 -6 85 -19
110 -26 49 -74 98 -121 122 -51 27 -147 33 -200 13z"/>
<path d="M27725 20246 c-171 -43 -297 -181 -327 -359 -46 -277 212 -535 489
-489 240 40 405 262 365 494 -43 251 -285 414 -527 354z"/>
<path d="M19495 20215 c-45 -44 -26 -116 38 -138 22 -8 66 8 83 31 38 49 -4
132 -66 132 -19 0 -40 -9 -55 -25z"/>
<path d="M25675 20215 c-53 -52 -18 -135 56 -135 45 0 79 34 79 79 0 42 -38
81 -80 81 -19 0 -40 -9 -55 -25z"/>
<path d="M26592 20188 c-13 -22 -40 -58 -60 -81 -34 -40 -35 -41 -4 -12 34 30
98 123 91 130 -3 2 -15 -14 -27 -37z"/>
<path d="M18319 20171 c-45 -45 -37 -100 18 -129 31 -17 57 -15 85 8 62 48 23
150 -58 150 -9 0 -29 -13 -45 -29z"/>
<path d="M13855 20158 c-31 -18 -44 -40 -45 -76 0 -46 16 -71 55 -88 93 -39
168 75 96 147 -31 31 -70 37 -106 17z"/>
<path d="M26793 20145 c-219 -59 -360 -269 -325 -483 32 -188 177 -333 366
-364 131 -22 274 27 370 126 166 170 164 440 -3 606 -111 109 -266 153 -408
115z"/>
<path d="M11070 20123 c-75 -28 -76 -142 -1 -172 32 -14 66 -8 95 18 75 66 1
189 -94 154z"/>
<path d="M21376 20107 c-48 -27 -76 -78 -76 -137 0 -88 64 -150 155 -150 91 0
155 62 155 150 0 89 -69 160 -155 160 -23 0 -56 -10 -79 -23z"/>
<path d="M11903 20112 c-32 -5 -73 -58 -73 -94 0 -42 48 -88 92 -88 44 0 74
22 88 64 22 69 -33 130 -107 118z"/>
<path d="M26460 20049 c-22 -18 -22 -19 -3 -10 12 6 25 16 28 21 9 15 3 12
-25 -11z"/>
<path d="M19745 20036 c-79 -19 -145 -57 -205 -117 -177 -175 -171 -459 13
-625 61 -55 137 -91 225 -106 230 -39 456 128 493 363 46 296 -235 556 -526
485z"/>
<path d="M26410 20020 c-9 -6 -10 -10 -3 -10 6 0 15 5 18 10 8 12 4 12 -15 0z"/>
<path d="M26355 20000 c-13 -6 -15 -9 -5 -9 8 0 22 4 30 9 18 12 2 12 -25 0z"/>
<path d="M14248 19993 c7 -3 16 -2 19 1 4 3 -2 6 -13 5 -11 0 -14 -3 -6 -6z"/>
<path d="M14318 19983 c17 -2 47 -2 65 0 17 2 3 4 -33 4 -36 0 -50 -2 -32 -4z"/>
<path d="M25679 19967 c-312 -109 -397 -494 -160 -721 71 -67 142 -102 234
-115 137 -19 273 25 368 121 214 215 150 570 -127 700 -55 26 -81 32 -158 35
-76 3 -102 0 -157 -20z"/>
<path d="M26128 19983 c7 -3 16 -2 19 1 4 3 -2 6 -13 5 -11 0 -14 -3 -6 -6z"/>
<path d="M26308 19983 c7 -3 16 -2 19 1 4 3 -2 6 -13 5 -11 0 -14 -3 -6 -6z"/>
<path d="M12856 19955 c-20 -18 -26 -34 -26 -65 0 -55 34 -90 87 -90 86 1 124
91 64 151 -38 38 -87 39 -125 4z"/>
<path d="M26198 19973 c18 -2 45 -2 60 0 15 2 0 4 -33 4 -33 0 -45 -2 -27 -4z"/>
<path d="M10089 19822 c-26 -23 -33 -37 -33 -65 0 -94 127 -128 169 -46 32 62
1 125 -66 135 -31 5 -42 1 -70 -24z"/>
<path d="M22645 19745 c-16 -15 -25 -36 -25 -55 0 -71 91 -107 140 -55 72 77
-41 185 -115 110z"/>
<path d="M19245 19708 c-31 -17 -45 -39 -45 -74 0 -49 30 -79 80 -79 49 0 80
29 80 75 0 42 -9 59 -41 75 -33 18 -47 18 -74 3z"/>
<path d="M21246 19679 c-100 -24 -196 -92 -256 -181 -157 -236 -51 -554 218
-650 80 -28 207 -28 283 1 250 95 359 370 242 605 -87 173 -297 270 -487 225z"/>
<path d="M8770 19666 c-130 -28 -244 -120 -303 -243 -30 -64 -32 -75 -32 -178
0 -103 2 -114 32 -178 129 -272 472 -340 688 -136 102 96 140 191 133 334 -3
82 -8 101 -41 168 -62 125 -175 211 -311 236 -72 13 -95 13 -166 -3z"/>
<path d="M7423 19611 c-174 -60 -293 -225 -293 -407 0 -244 189 -434 430 -434
355 0 556 403 344 691 -50 68 -139 131 -218 154 -69 21 -198 19 -263 -4z m319
-34 c92 -45 157 -112 201 -205 30 -62 32 -75 32 -172 0 -97 -2 -110 -32 -172
-44 -94 -109 -160 -202 -206 -72 -36 -79 -37 -181 -37 -102 0 -109 1 -181 37
-93 46 -158 112 -202 206 -30 62 -32 75 -32 172 0 97 2 110 32 172 53 113 137
187 258 231 38 13 73 17 141 14 82 -2 100 -7 166 -40z"/>
<path d="M20464 19556 c-42 -19 -64 -52 -64 -99 0 -54 52 -107 105 -107 29 0
45 8 71 34 58 58 42 141 -32 172 -40 17 -41 17 -80 0z"/>
<path d="M22695 19529 c-225 -32 -393 -262 -358 -490 49 -312 398 -469 663
-299 225 144 263 460 79 655 -104 110 -233 155 -384 134z"/>
<path d="M26335 19528 c-67 -39 -56 -135 18 -153 76 -19 135 88 78 139 -24 22
-72 29 -96 14z"/>
<path d="M8284 19496 c-51 -22 -60 -81 -19 -121 48 -49 125 -16 125 54 0 60
-49 91 -106 67z"/>
<path d="M28150 19442 c-47 -26 -70 -85 -50 -132 15 -37 63 -70 100 -70 14 0
39 9 56 19 116 71 14 248 -106 183z"/>
<path d="M8165 19293 c-60 -15 -124 -101 -125 -168 0 -44 40 -116 77 -141 98
-65 233 -15 263 98 35 127 -84 243 -215 211z"/>
<path d="M25254 19286 c-35 -15 -44 -32 -44 -81 0 -24 7 -39 26 -54 80 -63
179 38 112 113 -30 32 -56 38 -94 22z"/>
<path d="M27711 19289 c-228 -38 -393 -272 -352 -497 31 -168 141 -293 299
-342 202 -63 427 35 516 224 125 265 -41 574 -330 616 -38 5 -71 9 -74 9 -3
-1 -29 -5 -59 -10z"/>
<path d="M20358 19271 c-79 -26 -136 -61 -190 -119 -198 -211 -135 -555 125
-681 264 -128 570 32 617 323 34 213 -105 426 -315 480 -78 21 -166 19 -237
-3z"/>
<path d="M26365 19272 c-119 -41 -205 -117 -256 -226 -60 -129 -59 -252 6
-383 105 -212 361 -294 582 -186 64 31 151 120 186 189 119 237 -3 527 -256
606 -75 23 -195 23 -262 0z"/>
<path d="M21962 19210 c-67 -41 -92 -131 -56 -206 48 -100 201 -112 266 -21
32 44 36 131 9 175 -30 47 -77 72 -136 72 -32 0 -62 -7 -83 -20z"/>
<path d="M27049 19171 c-66 -66 -18 -181 76 -181 93 0 140 111 76 179 -24 26
-36 31 -76 31 -38 0 -52 -5 -76 -29z"/>
<path d="M6939 19115 c-52 -28 -61 -103 -19 -145 44 -44 118 -32 146 22 40 77
-51 166 -127 123z"/>
<path d="M19849 19051 c-17 -18 -29 -40 -29 -56 0 -34 50 -85 84 -85 41 0 80
41 80 85 0 29 -7 43 -28 61 -37 32 -71 30 -107 -5z"/>
<path d="M25415 19056 c-205 -65 -335 -267 -305 -477 20 -139 118 -271 247
-331 121 -57 284 -49 400 19 94 55 170 157 199 268 58 214 -72 450 -282 515
-76 23 -196 26 -259 6z"/>
<path d="M23245 18905 c-51 -50 -17 -135 54 -135 49 0 81 32 81 82 0 70 -86
103 -135 53z"/>
<path d="M6925 18856 c-170 -42 -297 -180 -327 -355 -48 -279 209 -539 487
-493 239 39 405 260 367 489 -42 254 -285 419 -527 359z"/>
<path d="M8257 18849 c-61 -14 -137 -58 -194 -111 -156 -148 -174 -394 -43
-569 192 -255 597 -216 733 72 114 241 -8 521 -261 599 -68 21 -168 25 -235 9z"/>
<path d="M21642 18813 c-15 -6 -42 -56 -42 -77 0 -8 12 -28 26 -45 39 -47 102
-42 129 10 20 38 19 62 -6 93 -16 20 -29 26 -57 25 -20 0 -43 -3 -50 -6z"/>
<path d="M7844 18790 c-32 -13 -54 -50 -54 -91 0 -29 7 -43 31 -63 41 -35 83
-34 120 3 47 48 38 116 -21 146 -32 17 -45 18 -76 5z"/>
<path d="M22087 18770 c-309 -98 -403 -484 -175 -717 166 -168 447 -169 611 0
271 278 75 739 -313 736 -36 0 -91 -8 -123 -19z"/>
<path d="M8855 18748 c-15 -14 -28 -38 -31 -59 -5 -31 -1 -42 24 -70 37 -41
88 -46 126 -10 87 82 -28 217 -119 139z"/>
<path d="M27075 18738 c-37 -20 -55 -52 -55 -96 0 -35 6 -49 29 -73 24 -24 38
-29 76 -29 40 0 52 5 76 31 32 34 38 78 17 124 -21 47 -96 69 -143 43z"/>
<path d="M23167 18680 c-78 -14 -173 -64 -230 -123 -171 -175 -168 -450 8
-616 254 -240 670 -98 726 248 36 225 -126 448 -355 490 -66 12 -80 12 -149 1z"/>
<path d="M21190 18666 c-156 -35 -303 -178 -325 -316 -4 -24 0 -18 13 20 37
110 120 203 227 256 56 27 68 29 175 29 109 0 119 -2 182 -32 88 -41 160 -113
201 -201 30 -63 32 -74 32 -177 0 -108 -1 -113 -37 -185 -42 -86 -99 -146
-178 -189 -66 -37 -59 -41 10 -6 109 55 198 183 220 316 38 221 -123 447 -349
489 -67 12 -101 12 -171 -4z"/>
<path d="M7631 18555 c-91 -29 -149 -120 -138 -218 20 -168 225 -235 343 -112
146 151 -6 395 -205 330z"/>
<path d="M27995 18398 c-52 -28 -62 -92 -20 -133 28 -29 54 -31 94 -10 59 30
56 110 -6 143 -27 15 -42 15 -68 0z"/>
<path d="M26116 18389 c-221 -37 -388 -275 -347 -496 46 -253 291 -411 536
-348 166 43 287 178 317 353 38 224 -123 449 -351 492 -61 11 -85 11 -155 -1z"/>
<path d="M26939 18367 c-66 -35 -102 -93 -107 -171 -3 -49 0 -71 16 -102 68
-132 216 -162 337 -70 l31 24 -10 -60 c-20 -120 25 -257 115 -353 96 -101 191
-140 333 -133 76 3 102 9 158 35 37 18 90 53 118 79 221 206 165 566 -108 701
-74 37 -79 38 -187 38 -108 0 -113 -1 -187 -38 -57 -28 -92 -54 -136 -102
l-60 -65 -4 55 c-9 108 -95 185 -208 185 -40 0 -70 -7 -101 -23z"/>
<path d="M20633 18344 c-21 -21 -24 -32 -19 -62 11 -74 92 -98 140 -41 30 35
32 49 11 88 -25 50 -90 57 -132 15z"/>
<path d="M6415 18318 c-22 -26 -26 -39 -21 -67 17 -111 181 -104 181 7 0 58
-34 92 -91 92 -35 0 -47 -5 -69 -32z"/>
<path d="M20853 18245 c0 -38 2 -53 4 -32 2 20 2 52 0 70 -2 17 -4 1 -4 -38z"/>
<path d="M25151 18180 c-74 -16 -168 -66 -220 -118 -170 -170 -171 -443 -2
-613 248 -248 667 -113 732 236 36 194 -86 403 -276 474 -65 24 -172 34 -234
21z"/>
<path d="M20865 18140 c8 -53 51 -133 99 -187 48 -52 134 -108 181 -118 18 -3
10 2 -20 15 -112 45 -207 147 -246 265 -12 37 -18 46 -14 25z"/>
<path d="M22652 18094 c-35 -24 -44 -59 -28 -98 25 -60 103 -68 140 -14 52 74
-38 164 -112 112z"/>
<path d="M6421 18089 c-223 -38 -388 -267 -352 -488 28 -173 152 -313 316
-355 156 -41 317 5 427 122 182 194 147 504 -74 652 -93 62 -210 87 -317 69z"/>
<path d="M7740 18039 c-149 -29 -285 -161 -325 -314 -64 -250 95 -491 355
-537 174 -30 371 73 450 237 158 325 -122 684 -480 614z"/>
<path d="M23719 17981 c-23 -23 -29 -38 -29 -71 0 -52 13 -76 50 -95 77 -40
160 8 160 91 0 60 -45 103 -108 104 -35 0 -49 -6 -73 -29z"/>
<path d="M7200 17978 c-22 -15 -40 -38 -49 -64 -13 -37 -12 -44 5 -79 38 -77
119 -101 183 -56 34 25 57 85 47 125 -20 82 -118 120 -186 74z"/>
<path d="M9067 17986 c-89 -24 -147 -103 -147 -198 0 -110 75 -194 183 -205
155 -16 271 141 212 285 -41 96 -145 146 -248 118z"/>
<path d="M8322 17895 c-83 -69 1 -200 97 -151 17 9 35 25 41 35 30 56 -7 127
-71 137 -28 5 -41 1 -67 -21z"/>
<path d="M26776 17898 c-43 -39 -36 -107 14 -133 41 -21 58 -19 91 14 44 44
39 100 -12 126 -39 21 -64 19 -93 -7z"/>
<path d="M21785 17876 c-218 -54 -364 -273 -326 -487 41 -234 263 -398 488
-361 240 40 405 262 365 494 -43 251 -285 414 -527 354z"/>
<path d="M21188 17823 c7 -3 16 -2 19 1 4 3 -2 6 -13 5 -11 0 -14 -3 -6 -6z"/>
<path d="M21368 17823 c7 -3 16 -2 19 1 4 3 -2 6 -13 5 -11 0 -14 -3 -6 -6z"/>
<path d="M22644 17821 c-63 -16 -125 -54 -169 -103 -115 -128 -108 -316 15
-440 48 -48 68 -60 129 -79 126 -38 245 -6 331 87 63 68 84 123 85 219 0 68
-4 89 -28 136 -32 66 -100 132 -162 160 -50 22 -154 32 -201 20z"/>
<path d="M21258 17813 c18 -2 45 -2 60 0 15 2 0 4 -33 4 -33 0 -45 -2 -27 -4z"/>
<path d="M23471 17749 c-83 -14 -173 -63 -236 -130 -128 -134 -156 -315 -77
-483 131 -275 496 -331 706 -107 179 193 142 505 -77 652 -92 61 -209 86 -316
68z"/>
<path d="M7096 17695 c-72 -26 -136 -114 -136 -190 0 -46 32 -115 70 -149 87
-78 210 -71 288 18 74 85 65 208 -22 284 -57 50 -128 63 -200 37z"/>
<path d="M8720 17662 c-22 -12 -44 -35 -58 -63 -53 -101 14 -209 129 -209 87
0 154 72 146 157 -11 105 -123 164 -217 115z"/>
<path d="M9321 17634 c-30 -21 -51 -71 -44 -107 13 -67 111 -100 166 -57 49
39 45 130 -9 165 -30 20 -83 19 -113 -1z"/>
<path d="M26856 17639 c-220 -36 -384 -268 -347 -491 58 -350 482 -488 732
-239 65 66 104 143 121 239 38 224 -123 449 -351 492 -61 11 -85 11 -155 -1z"/>
<path d="M5868 17614 c-51 -27 -53 -115 -5 -149 22 -15 73 -20 102 -9 21 8 45
56 45 89 0 36 -50 85 -87 85 -15 -1 -40 -7 -55 -16z"/>
<path d="M24654 17604 c-75 -37 -77 -151 -2 -190 38 -20 70 -17 109 9 69 46
60 151 -16 183 -43 18 -52 17 -91 -2z"/>
<path d="M25765 17569 c-52 -29 -62 -93 -20 -134 50 -51 135 -15 135 58 0 56
-69 102 -115 76z"/>
<path d="M9070 17426 c-131 -28 -237 -112 -297 -233 -33 -67 -38 -86 -41 -168
-3 -70 0 -106 13 -146 53 -162 182 -273 349 -302 242 -41 480 148 494 394 8
138 -32 244 -127 339 -63 64 -138 103 -225 119 -72 13 -95 13 -166 -3z"/>
<path d="M26089 17407 c-126 -84 -65 -287 87 -287 155 0 214 209 82 290 -47
28 -125 27 -169 -3z"/>
<path d="M27480 17407 c-54 -27 -63 -94 -20 -137 39 -39 120 -12 134 45 9 36
-17 81 -55 94 -18 6 -32 11 -33 11 -1 0 -12 -6 -26 -13z"/>
<path d="M5742 17352 c-178 -64 -293 -229 -291 -417 1 -33 4 -70 7 -83 4 -13
7 25 7 85 0 101 2 112 32 176 42 89 121 168 210 210 63 30 75 32 173 32 102 0
109 -1 181 -37 93 -46 158 -112 202 -206 30 -62 32 -75 32 -172 0 -97 -2 -110
-32 -172 -44 -94 -109 -160 -202 -206 -72 -36 -79 -37 -181 -37 -98 0 -110 2
-173 32 -87 41 -168 121 -207 205 -17 35 -30 57 -30 50 0 -31 63 -131 112
-179 213 -208 569 -142 692 128 97 213 8 462 -202 567 -70 34 -83 37 -176 40
-79 2 -113 -2 -154 -16z"/>
<path d="M24647 17320 c-375 -119 -405 -635 -47 -804 88 -41 223 -48 315 -17
193 68 308 243 292 449 -10 128 -89 259 -197 327 -102 64 -247 82 -363 45z"/>
<path d="M25550 17281 c-154 -47 -233 -228 -161 -369 84 -165 303 -196 426
-60 51 55 68 101 69 178 0 111 -69 209 -173 245 -47 16 -119 18 -161 6z"/>
<path d="M6822 17247 c-48 -50 -15 -127 53 -127 45 0 75 29 75 73 0 68 -83
103 -128 54z"/>
<path d="M7185 17216 c-157 -38 -280 -158 -320 -311 -51 -200 46 -412 230
-499 262 -125 567 36 615 325 50 293 -235 556 -525 485z"/>
<path d="M22372 17194 c-73 -51 -23 -163 64 -146 13 2 33 16 44 30 59 74 -31
170 -108 116z"/>
<path d="M6485 17117 c-136 -77 -134 -275 3 -350 194 -106 388 122 255 301
-54 72 -176 95 -258 49z"/>
<path d="M7814 17110 c-83 -35 -64 -162 27 -176 80 -13 132 88 77 150 -25 29
-72 40 -104 26z"/>
<path d="M22842 17020 c-101 -62 -96 -219 8 -273 46 -24 126 -19 167 11 91 65
79 218 -21 266 -47 22 -114 20 -154 -4z"/>
<path d="M22155 16986 c-171 -43 -297 -181 -327 -359 -45 -275 214 -534 489
-489 191 32 332 172 365 361 38 224 -113 442 -340 490 -66 14 -123 13 -187 -3z"/>
<path d="M21694 16946 c-54 -46 -30 -127 43 -142 27 -5 37 -1 63 24 39 39 39
74 1 113 -36 35 -70 37 -107 5z"/>
<path d="M26157 16950 c-78 -14 -173 -64 -230 -123 -151 -154 -167 -393 -39
-562 232 -306 712 -184 773 196 21 128 -22 259 -116 358 -67 70 -132 107 -222
126 -75 16 -95 17 -166 5z"/>
<path d="M23896 16898 c-24 -22 -30 -40 -27 -80 4 -58 102 -80 140 -32 63 80
-38 179 -113 112z"/>
<path d="M5273 16885 c-61 -26 -72 -97 -24 -146 37 -37 79 -38 120 -3 53 44
40 123 -24 150 -40 16 -32 17 -72 -1z"/>
<path d="M23306 16829 c-207 -51 -354 -278 -317 -487 39 -218 210 -362 429
-362 129 0 225 42 315 139 199 213 129 558 -140 684 -58 27 -81 32 -158 34
-49 1 -107 -2 -129 -8z"/>
<path d="M8589 16727 c-39 -26 -69 -79 -69 -122 0 -78 69 -145 149 -145 85 0
144 60 144 146 0 113 -130 184 -224 121z"/>
<path d="M24190 16727 c-50 -25 -61 -95 -21 -131 10 -9 31 -19 49 -22 26 -5
36 -1 62 24 39 39 39 74 1 113 -32 32 -53 35 -91 16z"/>
<path d="M26759 16701 c-18 -14 -24 -29 -24 -61 0 -50 29 -80 77 -80 41 0 63
14 78 50 15 35 0 84 -31 100 -29 16 -75 12 -100 -9z"/>
<path d="M6611 16662 c-19 -10 -44 -35 -54 -56 -65 -125 115 -240 203 -129 81
103 -36 248 -149 185z"/>
<path d="M9405 16590 c-118 -78 -62 -270 80 -270 141 0 201 198 82 270 -43 27
-122 27 -162 0z"/>
<path d="M5215 16586 c-117 -37 -216 -123 -268 -233 -30 -64 -32 -74 -32 -183
0 -105 2 -120 28 -174 118 -254 432 -336 654 -172 277 204 208 641 -119 756
-67 23 -199 26 -263 6z"/>
<path d="M6205 16581 c-81 -36 -135 -131 -120 -210 18 -95 79 -156 173 -174
88 -17 198 54 222 143 44 166 -121 311 -275 241z"/>
<path d="M25315 16586 c-103 -46 -153 -179 -106 -281 73 -158 289 -169 377
-19 48 81 31 197 -38 261 -53 50 -166 69 -233 39z"/>
<path d="M24221 16494 c-323 -87 -434 -488 -200 -723 164 -163 426 -171 596
-17 212 192 183 530 -60 687 -96 63 -225 83 -336 53z"/>
<path d="M8889 16476 c-211 -59 -348 -273 -311 -486 21 -124 85 -223 185 -291
76 -50 150 -72 246 -71 363 3 557 426 325 709 -101 123 -289 182 -445 139z"/>
<path d="M5831 16452 c-49 -24 -73 -62 -73 -111 2 -108 132 -160 206 -82 59
61 38 165 -39 197 -44 18 -53 18 -94 -4z"/>
<path d="M6723 16355 c-77 -21 -130 -51 -188 -106 -260 -246 -121 -682 236
-740 227 -37 451 130 489 364 48 303 -240 562 -537 482z"/>
<path d="M7255 16295 c-40 -39 -32 -96 17 -121 53 -28 108 6 108 67 0 70 -77
103 -125 54z"/>
<path d="M22781 16246 c-57 -32 -68 -115 -22 -165 24 -26 36 -31 76 -31 38 0
52 5 76 29 23 24 29 38 29 73 -1 85 -85 135 -159 94z"/>
<path d="M24933 16218 c-28 -32 -34 -54 -22 -85 13 -36 38 -52 77 -53 43 0 82
38 82 80 0 69 -92 107 -137 58z"/>
<path d="M4733 16155 c-37 -16 -53 -42 -53 -87 1 -81 93 -117 151 -59 38 38
39 87 4 125 -13 14 -28 26 -34 26 -5 0 -15 2 -23 5 -7 2 -27 -2 -45 -10z"/>
<path d="M5975 16141 c-91 -24 -165 -83 -205 -166 -33 -70 -34 -179 -2 -251
69 -153 256 -223 404 -151 189 93 233 340 85 485 -23 23 -64 51 -91 63 -53 23
-143 33 -191 20z"/>
<path d="M8341 16129 c-50 -47 -50 -111 1 -154 51 -43 125 -28 153 30 18 39
19 59 4 88 -30 58 -114 77 -158 36z"/>
<path d="M21973 16125 c-42 -30 -34 -121 12 -139 77 -29 147 42 111 112 -23
45 -80 57 -123 27z"/>
<path d="M25535 16113 c-150 -54 -266 -181 -290 -318 -11 -58 -12 -58 -51 -15
-97 108 -273 87 -343 -40 -45 -80 -26 -194 41 -257 57 -54 167 -69 237 -34 42
22 95 78 106 111 6 18 12 11 41 -47 46 -90 112 -156 202 -201 64 -31 85 -36
161 -40 145 -7 244 32 340 133 204 216 136 560 -136 688 -59 27 -81 32 -163
34 -72 3 -107 -1 -145 -14z"/>
<path d="M22343 16055 c-171 -37 -302 -176 -335 -353 -31 -166 55 -350 203
-439 218 -130 501 -47 611 179 124 252 -24 555 -299 613 -81 17 -99 17 -180 0z"/>
<path d="M26153 16010 c-52 -21 -59 -95 -12 -134 17 -14 37 -26 45 -26 24 0
71 28 78 45 30 78 -35 145 -111 115z"/>
<path d="M4630 15876 c-130 -28 -237 -112 -297 -233 -31 -63 -37 -87 -41 -158
-8 -142 33 -248 129 -340 172 -164 426 -164 598 0 96 92 137 198 129 340 -4
71 -10 95 -41 158 -62 125 -175 211 -311 236 -72 13 -95 13 -166 -3z"/>
<path d="M8329 15857 c-66 -35 -102 -93 -107 -170 -3 -51 1 -70 20 -107 79
-147 293 -146 368 1 38 74 18 191 -41 246 -62 56 -165 69 -240 30z"/>
<path d="M23279 15857 c-88 -30 -171 -94 -220 -170 -56 -86 -72 -150 -67 -261
5 -117 41 -201 122 -282 81 -81 165 -117 282 -122 113 -5 178 12 264 70 258
172 251 558 -13 725 -103 65 -248 81 -368 40z"/>
<path d="M9291 15644 c-28 -35 -26 -69 4 -99 39 -40 96 -32 121 17 28 53 -6
108 -67 108 -29 0 -42 -6 -58 -26z"/>
<path d="M24625 15575 c-31 -30 -32 -73 -4 -109 28 -36 86 -36 119 -1 71 75
-42 184 -115 110z"/>
<path d="M5473 15580 c-89 -18 -173 -81 -215 -163 -14 -28 -23 -67 -26 -118
-4 -67 -1 -83 23 -138 52 -114 147 -175 275 -176 62 0 85 5 132 28 116 57 174
160 166 291 -8 115 -62 197 -161 245 -70 33 -132 43 -194 31z"/>
<path d="M8981 15540 c-224 -47 -381 -271 -343 -492 31 -178 149 -307 325
-354 232 -62 476 96 527 340 41 198 -81 413 -275 485 -65 24 -172 34 -234 21z"/>
<path d="M24135 15502 c-77 -26 -138 -66 -188 -122 -194 -215 -130 -549 130
-677 63 -31 87 -37 158 -41 142 -8 248 33 340 129 161 168 164 423 8 590 -59
63 -103 92 -182 119 -76 25 -195 26 -266 2z"/>
<path d="M6199 15487 c-157 -54 -261 -178 -290 -345 -31 -177 69 -365 238
-449 67 -33 86 -38 168 -41 113 -5 197 19 276 78 266 200 224 601 -78 743 -58
26 -82 32 -158 34 -74 3 -102 -1 -156 -20z"/>
<path d="M4051 15414 c-65 -54 -26 -154 59 -154 55 0 90 34 90 88 0 82 -85
120 -149 66z"/>
<path d="M6855 15431 c-98 -40 -66 -181 40 -181 35 0 85 50 85 85 0 41 -26 82
-61 94 -36 13 -37 13 -64 2z"/>
<path d="M8215 15412 c-69 -24 -117 -63 -149 -122 -142 -261 184 -526 406
-330 156 137 102 397 -96 455 -64 19 -99 18 -161 -3z"/>
<path d="M25148 15293 c18 -2 45 -2 60 0 15 2 0 4 -33 4 -33 0 -45 -2 -27 -4z"/>
<path d="M22865 15281 c-64 -27 -69 -122 -9 -150 40 -18 63 -13 96 19 25 26
29 36 24 63 -11 55 -64 87 -111 68z"/>
<path d="M25078 15283 c7 -3 16 -2 19 1 4 3 -2 6 -13 5 -11 0 -14 -3 -6 -6z"/>
<path d="M25258 15283 c7 -3 16 -2 19 1 4 3 -2 6 -13 5 -11 0 -14 -3 -6 -6z"/>
<path d="M25010 15265 c-33 -19 -21 -19 21 0 19 8 27 14 19 14 -8 0 -26 -6
-40 -14z"/>
<path d="M25305 15270 c27 -12 43 -12 25 0 -8 5 -22 9 -30 9 -10 0 -8 -3 5 -9z"/>
<path d="M25396 15229 c69 -44 91 -66 135 -133 22 -33 39 -55 39 -50 0 14 -49
85 -84 122 -31 33 -115 92 -131 92 -5 0 13 -14 41 -31z"/>
<path d="M24926 15219 c-128 -85 -204 -266 -177 -420 32 -185 178 -330 363
-361 176 -29 365 68 447 230 17 34 31 67 31 73 0 6 -16 -20 -35 -58 -43 -87
-112 -153 -203 -196 -63 -30 -74 -32 -177 -32 -102 0 -114 2 -175 31 -95 46
-153 102 -197 191 -33 67 -38 86 -41 167 -3 74 0 103 18 155 32 96 91 173 180
233 14 9 22 17 19 17 -3 1 -27 -13 -53 -30z"/>
<path d="M25664 15180 c-55 -22 -70 -95 -29 -135 51 -52 135 -17 135 56 0 37
-26 79 -49 79 -5 0 -15 2 -23 4 -7 3 -23 1 -34 -4z"/>
<path d="M3936 15160 c-269 -86 -380 -409 -225 -652 41 -63 98 -111 179 -151
61 -30 70 -32 180 -32 110 0 119 2 180 32 160 78 250 219 250 389 0 296 -283
504 -564 414z"/>
<path d="M22123 15155 c-28 -12 -53 -50 -53 -81 0 -25 56 -74 83 -74 39 0 56
10 72 41 20 38 19 61 -5 91 -24 31 -59 39 -97 23z"/>
<path d="M22510 15099 c-25 -5 -77 -25 -117 -44 -203 -100 -291 -353 -195
-558 141 -302 543 -344 742 -78 59 79 83 163 78 276 -3 82 -8 101 -41 168 -62
125 -175 211 -311 236 -68 12 -92 12 -156 0z"/>
<path d="M25571 15025 c1 -19 18 -51 18 -35 0 8 -4 22 -9 30 -5 8 -9 11 -9 5z"/>
<path d="M5742 14977 c-45 -48 -11 -127 54 -127 45 0 74 29 74 75 0 69 -81
102 -128 52z"/>
<path d="M5274 14960 c-39 -16 -66 -61 -60 -100 6 -41 46 -80 82 -80 62 0 112
58 99 113 -13 51 -76 86 -121 67z"/>
<path d="M25591 14954 c0 -11 3 -14 6 -6 3 7 2 16 -1 19 -3 4 -6 -2 -5 -13z"/>
<path d="M4762 14934 c-91 -45 -142 -127 -142 -229 0 -146 109 -255 255 -255
279 0 355 375 100 491 -61 28 -149 25 -213 -7z"/>
<path d="M23355 14935 c-74 -28 -137 -85 -175 -159 -31 -61 -35 -78 -35 -145
0 -125 60 -227 167 -287 48 -26 62 -29 148 -29 80 0 103 4 144 24 199 98 244
367 86 519 -63 62 -120 85 -215 89 -53 2 -94 -2 -120 -12z"/>
<path d="M25603 14865 c0 -33 2 -45 4 -27 2 18 2 45 0 60 -2 15 -4 0 -4 -33z"/>
<path d="M8060 14870 c-44 -44 -6 -130 58 -130 59 0 93 76 56 128 -20 29 -85
31 -114 2z"/>
<path d="M9493 14865 c-68 -29 -80 -120 -22 -169 84 -71 205 26 154 124 -9 18
-31 38 -50 46 -41 17 -42 17 -82 -1z"/>
<path d="M5577 14819 c-129 -18 -258 -114 -319 -236 -141 -287 67 -623 388
-623 314 0 522 328 390 615 -52 115 -193 225 -306 240 -87 11 -95 12 -153 4z"/>
<path d="M8333 14785 c-77 -21 -130 -51 -188 -106 -217 -206 -160 -574 109
-700 171 -80 351 -52 485 76 178 169 181 444 8 617 -107 107 -270 151 -414
113z"/>
<path d="M25591 14774 c0 -11 3 -14 6 -6 3 7 2 16 -1 19 -3 4 -6 -2 -5 -13z"/>
<path d="M3451 14724 c-25 -21 -31 -33 -31 -65 0 -55 34 -89 90 -89 56 0 90
34 90 89 0 32 -6 44 -31 65 -17 15 -43 26 -59 26 -16 0 -42 -11 -59 -26z"/>
<path d="M9307 14639 c-86 -13 -177 -61 -242 -130 -132 -138 -157 -319 -70
-496 54 -108 170 -201 275 -218 24 -4 16 1 -24 15 -131 47 -222 140 -266 270
-18 53 -21 82 -18 155 4 100 29 167 87 240 119 147 333 197 504 117 79 -37
163 -115 200 -188 15 -27 26 -44 26 -39 1 6 -13 33 -29 62 -90 156 -262 239
-443 212z"/>
<path d="M6159 14581 c-38 -38 -39 -80 -1 -121 66 -74 183 -8 152 86 -23 69
-99 86 -151 35z"/>
<path d="M24451 14589 c-77 -15 -169 -65 -224 -122 -174 -178 -166 -458 16
-623 256 -231 663 -85 718 257 35 220 -116 437 -338 484 -75 16 -107 17 -172
4z"/>
<path d="M4500 14473 c-56 -21 -70 -96 -24 -132 35 -28 69 -26 99 4 40 39 32
96 -16 120 -30 16 -35 17 -59 8z"/>
<path d="M3342 14457 c-46 -14 -117 -80 -141 -130 -26 -53 -28 -157 -6 -211
58 -139 239 -199 369 -122 173 101 166 355 -13 448 -43 22 -66 28 -115 27 -33
-1 -76 -6 -94 -12z"/>
<path d="M23913 14430 c-27 -11 -46 -46 -45 -83 3 -104 161 -94 162 10 0 23
-8 38 -31 57 -32 27 -50 31 -86 16z"/>
<path d="M4720 14334 c-119 -32 -221 -117 -278 -233 -36 -73 -37 -78 -37 -185
0 -104 2 -115 32 -179 38 -79 114 -163 181 -200 270 -147 594 12 641 313 48
306 -239 564 -539 484z"/>
<path d="M22992 14320 c-101 -62 -97 -216 8 -271 73 -39 157 -15 207 60 44 65
22 162 -47 209 -43 29 -121 30 -168 2z"/>
<path d="M9792 14300 c0 -14 2 -19 5 -12 2 6 2 18 0 25 -3 6 -5 1 -5 -13z"/>
<path d="M22160 14282 c-39 -39 -39 -74 -1 -113 39 -38 74 -38 113 1 25 26 29
36 24 63 -8 41 -32 65 -73 73 -27 5 -37 1 -63 -24z"/>
<path d="M3798 14285 c-78 -44 -56 -157 33 -171 31 -5 42 -1 70 24 27 24 33
36 32 67 -2 69 -76 113 -135 80z"/>
<path d="M25121 14264 c-36 -26 -54 -79 -41 -120 39 -117 210 -88 210 36 0 48
-55 100 -107 100 -21 0 -49 -7 -62 -16z"/>
<path d="M9803 14210 c0 -36 2 -50 4 -32 2 17 2 47 0 65 -2 17 -4 3 -4 -33z"/>
<path d="M4170 14243 c-92 -47 -87 -180 7 -220 102 -42 202 58 160 160 -28 65
-104 93 -167 60z"/>
<path d="M23545 14176 c-141 -35 -259 -144 -305 -282 -18 -54 -22 -82 -18
-159 3 -82 8 -101 41 -168 84 -169 266 -267 446 -238 229 37 382 227 369 459
-15 263 -274 452 -533 388z"/>
<path d="M22436 14154 c-124 -30 -232 -120 -289 -241 -24 -53 -32 -84 -35
-150 -7 -133 30 -237 116 -326 44 -46 135 -107 157 -106 6 0 -12 11 -39 26
-72 37 -151 121 -188 198 -64 137 -46 308 45 431 78 106 174 156 313 162 113
5 177 -12 263 -69 182 -121 235 -374 119 -565 -41 -68 -77 -103 -152 -148 -71
-43 -63 -48 9 -7 69 40 140 119 178 199 30 63 32 74 32 177 0 103 -2 114 -31
176 -59 125 -168 215 -294 243 -83 19 -126 19 -204 0z"/>
<path d="M2997 14120 c-56 -44 -40 -138 26 -159 105 -35 174 114 76 164 -39
21 -72 19 -102 -5z"/>
<path d="M9778 14082 c-34 -114 -133 -219 -248 -263 -30 -12 -93 -25 -140 -29
l-85 -7 66 -2 c151 -3 284 69 369 201 34 51 69 143 59 153 -2 2 -12 -22 -21
-53z"/>
<path d="M3788 14021 c-119 -38 -203 -112 -261 -231 -30 -61 -32 -70 -32 -180
0 -109 2 -119 32 -183 42 -87 117 -163 207 -207 60 -30 81 -35 161 -38 113 -5
193 18 279 79 234 168 233 531 -1 699 -107 76 -260 101 -385 61z"/>
<path d="M8804 14001 c-70 -43 -63 -146 12 -177 47 -20 87 -11 119 28 73 86
-35 209 -131 149z"/>
<path d="M5349 13945 c-100 -55 -17 -208 87 -159 59 28 71 98 25 145 -33 32
-70 37 -112 14z"/>
<path d="M8125 13905 c-40 -39 -32 -96 17 -121 53 -28 108 6 108 67 0 70 -77
103 -125 54z"/>
<path d="M9744 13900 c-62 -25 -82 -107 -39 -158 30 -36 66 -47 110 -32 82 27
92 145 15 185 -32 17 -54 18 -86 5z"/>
<path d="M2868 13881 c-119 -39 -208 -117 -259 -226 -42 -88 -54 -168 -39
-252 28 -164 131 -286 287 -343 53 -19 77 -22 160 -18 85 3 107 8 164 36 170
82 273 276 242 458 -25 143 -117 264 -249 326 -87 41 -217 49 -306 19z"/>
<path d="M8445 13848 c-81 -11 -176 -59 -238 -122 -173 -173 -168 -449 10
-617 152 -144 382 -159 549 -36 68 50 105 96 139 170 95 207 8 460 -192 560
-92 46 -165 59 -268 45z"/>
<path d="M24210 13737 c-50 -25 -61 -95 -21 -131 10 -9 31 -19 49 -22 26 -5
36 -1 62 24 39 39 39 74 1 113 -32 32 -53 35 -91 16z"/>
<path d="M9034 13730 c-63 -25 -85 -120 -40 -165 67 -67 176 -26 176 66 0 68
-76 124 -136 99z"/>
<path d="M9455 13686 c-165 -41 -286 -168 -321 -337 -59 -286 198 -556 485
-510 257 41 421 287 356 534 -21 81 -49 132 -106 192 -106 112 -264 158 -414
121z"/>
<path d="M23095 13619 c-31 -18 -45 -40 -45 -73 1 -54 49 -92 101 -81 82 18
78 146 -6 160 -16 3 -39 0 -50 -6z"/>
<path d="M2339 13515 c-52 -28 -60 -102 -16 -143 32 -28 64 -36 98 -21 29 12
59 54 59 83 0 29 -24 68 -51 82 -35 17 -57 17 -90 -1z"/>
<path d="M4441 13494 c-81 -68 4 -198 98 -150 60 31 70 99 22 147 -37 37 -79
38 -120 3z"/>
<path d="M22097 13408 c-21 -17 -38 -63 -30 -85 22 -64 94 -83 138 -38 51 50
17 135 -54 135 -20 0 -45 -6 -54 -12z"/>
<path d="M23889 13331 c-44 -45 -34 -100 24 -127 30 -14 38 -15 63 -3 58 28
69 95 22 139 -32 29 -74 26 -109 -9z"/>
<path d="M23046 13340 c-92 -29 -137 -152 -83 -230 37 -55 72 -75 132 -75 155
0 212 194 85 286 -30 22 -95 31 -134 19z"/>
<path d="M22630 13320 c-20 -6 -21 -8 -5 -8 11 0 29 3 40 8 25 11 -1 11 -35 0z"/>
<path d="M22438 13313 c6 -2 18 -2 25 0 6 3 1 5 -13 5 -14 0 -19 -2 -12 -5z"/>
<path d="M22513 13303 c15 -2 39 -2 55 0 15 2 2 4 -28 4 -30 0 -43 -2 -27 -4z"/>
<path d="M3473 13276 c-61 -53 -21 -156 62 -156 52 0 90 37 90 88 0 83 -88
123 -152 68z"/>
<path d="M2260 13268 c-22 -15 -40 -38 -49 -64 -13 -37 -12 -44 5 -79 25 -52
63 -78 112 -78 108 0 161 133 83 207 -42 40 -104 46 -151 14z"/>
<path d="M22312 13211 c-305 -105 -390 -500 -155 -722 216 -204 565 -136 688
134 106 231 -6 496 -248 586 -75 27 -208 29 -285 2z"/>
<path d="M23533 13180 c-77 -25 -175 -98 -219 -163 -102 -149 -104 -346 -3
-493 150 -220 473 -250 662 -60 213 213 147 569 -129 698 -89 41 -217 49 -311
18z"/>
<path d="M8899 13097 c-123 -82 -67 -267 81 -267 85 0 144 61 142 147 -1 114
-130 183 -223 120z"/>
<path d="M8157 13019 c-29 -17 -49 -68 -43 -105 9 -43 57 -84 101 -84 40 0 90
38 99 76 9 36 -10 89 -39 108 -27 18 -91 21 -118 5z"/>
<path d="M9894 12941 c-34 -15 -64 -60 -64 -98 0 -44 54 -103 94 -103 73 0
124 65 105 134 -15 54 -84 88 -135 67z"/>
<path d="M8461 12889 c-174 -34 -313 -181 -343 -364 -29 -174 73 -369 233
-447 170 -83 366 -50 499 82 98 99 146 243 122 370 -46 247 -273 406 -511 359z"/>
<path d="M9084 12780 c-113 -56 -108 -216 7 -264 59 -24 107 -16 154 25 84 74
58 208 -48 248 -41 16 -67 14 -113 -9z"/>
<path d="M23022 12793 c-22 -9 -44 -63 -37 -94 11 -48 67 -73 120 -53 23 9 48
62 41 90 -13 50 -73 78 -124 57z"/>
<path d="M9556 12720 c-175 -56 -296 -223 -296 -410 0 -240 191 -430 432 -430
89 0 161 21 235 69 71 46 113 95 156 181 30 61 32 70 32 180 0 110 -2 119 -32
180 -18 36 -47 83 -65 104 -42 51 -136 111 -203 131 -72 20 -186 18 -259 -5z"/>
<path d="M21990 12467 c-32 -16 -52 -59 -44 -92 8 -32 49 -65 81 -65 33 0 83
51 83 85 0 31 -49 85 -77 85 -10 0 -29 -6 -43 -13z"/>
<path d="M22964 12460 c-49 -15 -125 -71 -161 -118 -124 -164 -50 -419 143
-492 48 -18 73 -21 134 -18 280 17 408 348 210 545 -63 64 -120 87 -215 90
-44 1 -94 -2 -111 -7z"/>
<path d="M9071 12404 c-12 -15 -21 -38 -21 -51 0 -34 42 -73 80 -73 38 0 80
39 80 75 0 67 -98 101 -139 49z"/>
<path d="M24042 12404 c-35 -24 -44 -59 -28 -98 25 -60 103 -68 140 -14 52 74
-38 164 -112 112z"/>
<path d="M22133 12245 c-127 -34 -228 -116 -282 -227 -84 -173 -49 -371 90
-503 134 -128 315 -156 483 -77 274 130 331 496 108 704 -109 102 -259 140
-399 103z"/>
<path d="M23770 12207 c-223 -50 -376 -268 -341 -486 41 -257 288 -420 536
-356 82 22 147 60 204 120 154 163 161 403 15 581 -91 112 -270 173 -414 141z"/>
<path d="M9005 12173 c-103 -54 -144 -173 -96 -278 68 -151 289 -153 369 -5
52 98 11 228 -88 278 -53 26 -140 29 -185 5z"/>
<path d="M8145 12015 c-16 -15 -25 -36 -25 -55 0 -38 39 -80 73 -80 42 0 77
36 77 80 0 71 -76 104 -125 55z"/>
<path d="M10039 11991 c-64 -65 -20 -171 71 -171 33 0 48 6 71 29 64 65 20
171 -71 171 -33 0 -48 -6 -71 -29z"/>
<path d="M8520 11929 c-126 -21 -253 -117 -311 -234 -121 -247 12 -541 276
-610 199 -51 410 45 499 228 153 314 -118 674 -464 616z"/>
<path d="M9400 11820 c-12 -12 -20 -33 -20 -55 0 -45 29 -75 73 -75 68 0 103
83 54 128 -30 28 -80 29 -107 2z"/>
<path d="M9780 11806 c-279 -61 -421 -370 -289 -628 31 -60 125 -150 191 -182
260 -127 573 37 618 324 35 226 -123 447 -350 490 -65 12 -100 12 -170 -4z"/>
<path d="M23244 11756 c-56 -47 -20 -146 52 -146 34 0 84 51 84 85 0 34 -50
85 -84 85 -14 0 -37 -11 -52 -24z"/>
<path d="M22925 11701 c-83 -51 -104 -145 -50 -228 78 -118 270 -61 282 84 7
91 -62 163 -157 163 -26 0 -57 -8 -75 -19z"/>
<path d="M9145 11640 c-118 -78 -62 -270 80 -270 144 0 199 192 79 271 -39 26
-119 25 -159 -1z"/>
<path d="M22557 11360 c-78 -28 -122 -57 -180 -119 -155 -165 -153 -420 4
-586 96 -101 195 -140 340 -133 76 4 97 9 162 41 323 160 323 614 0 774 -69
34 -84 38 -172 40 -77 3 -108 -1 -154 -17z"/>
<path d="M23327 11366 c-112 -40 -173 -161 -137 -271 25 -75 122 -145 201
-145 92 0 189 78 207 165 24 114 -44 227 -154 254 -54 14 -70 13 -117 -3z"/>
<path d="M9112 11270 c-77 -32 -132 -112 -132 -193 0 -122 85 -207 205 -207
127 0 211 90 203 216 -5 78 -41 136 -107 171 -47 24 -125 30 -169 13z"/>
<path d="M23935 11266 c-273 -66 -414 -363 -291 -611 128 -259 468 -323 677
-128 98 91 139 185 139 318 0 133 -41 227 -139 318 -105 98 -250 136 -386 103z"/>
<path d="M8268 11074 c-35 -19 -48 -43 -48 -91 0 -94 114 -134 175 -61 74 87
-26 207 -127 152z"/>
<path d="M10214 11051 c-70 -43 -63 -146 12 -177 73 -30 139 13 139 92 0 81
-83 128 -151 85z"/>
<path d="M8590 10959 c-217 -42 -377 -271 -340 -488 31 -188 176 -332 364
-363 212 -35 426 105 481 317 80 311 -189 596 -505 534z"/>
<path d="M9946 10838 c-137 -18 -268 -116 -329 -245 -27 -58 -32 -81 -35 -163
-3 -77 1 -106 17 -155 87 -248 361 -364 594 -252 155 74 247 218 247 387 0
267 -228 465 -494 428z"/>
<path d="M9265 10793 c-75 -39 -115 -104 -115 -185 0 -115 78 -199 193 -206
78 -4 138 24 182 87 27 38 30 51 30 116 0 65 -3 78 -30 117 -40 57 -102 88
-175 88 -30 -1 -68 -8 -85 -17z"/>
<path d="M23363 10788 c-89 -24 -100 -154 -16 -197 42 -21 83 -13 119 23 27
27 34 42 34 74 0 72 -65 119 -137 100z"/>
<path d="M23038 10504 c-36 -19 -48 -43 -48 -94 0 -108 149 -140 199 -43 21
42 13 83 -23 119 -38 38 -81 44 -128 18z"/>
<path d="M23420 10436 c-123 -35 -226 -119 -281 -232 -29 -59 -34 -79 -37
-165 -5 -109 10 -172 59 -249 149 -238 474 -276 670 -80 239 238 130 640 -196
725 -70 18 -152 18 -215 1z"/>
<path d="M24324 10430 c-26 -10 -54 -48 -54 -72 0 -30 21 -65 47 -77 36 -17
59 -13 89 13 69 59 1 171 -82 136z"/>
<path d="M22385 10417 c-80 -21 -145 -58 -206 -118 -170 -170 -170 -440 0
-609 67 -66 144 -106 239 -122 227 -39 450 123 493 357 36 196 -85 403 -278
475 -69 26 -183 34 -248 17z"/>
<path d="M9270 10271 c-127 -27 -213 -134 -212 -265 1 -73 20 -123 69 -177 57
-63 105 -83 193 -84 65 0 82 4 128 29 163 91 190 298 55 428 -61 59 -153 86
-233 69z"/>
<path d="M24114 10271 c-67 -29 -84 -118 -35 -173 25 -28 36 -33 76 -33 40 0
51 5 76 33 39 44 40 99 2 142 -30 33 -82 46 -119 31z"/>
<path d="M8324 10166 c-41 -18 -64 -52 -64 -96 0 -44 20 -73 59 -90 69 -28
141 17 141 89 0 46 -23 79 -66 97 -39 16 -32 16 -70 0z"/>
<path d="M8563 10005 c-172 -47 -296 -183 -324 -355 -45 -279 212 -538 488
-492 259 43 422 288 357 537 -59 228 -298 370 -521 310z"/>
<path d="M10291 9986 c-57 -31 -67 -107 -22 -158 24 -27 36 -33 70 -33 104 0
143 142 51 190 -35 18 -67 19 -99 1z"/>
<path d="M9866 9888 c-209 -28 -366 -212 -366 -428 0 -171 91 -313 250 -389
71 -34 81 -36 175 -36 74 0 113 5 150 19 127 48 224 147 265 272 33 98 26 224
-17 317 -82 173 -264 272 -457 245z"/>
<path d="M22951 9794 c-28 -36 -27 -79 4 -109 50 -51 138 -16 138 55 0 73 -98
110 -142 54z"/>
<path d="M21711 9724 c-79 -21 -145 -60 -202 -121 -204 -216 -136 -565 134
-688 233 -107 498 7 587 252 19 53 22 77 18 161 -3 87 -7 107 -37 166 -91 186
-302 283 -500 230z"/>
<path d="M9249 9671 c-17 -13 -23 -29 -23 -56 0 -70 79 -101 129 -50 30 30 32
64 4 99 -25 32 -75 35 -110 7z"/>
<path d="M22998 9549 c-50 -11 -145 -61 -184 -96 -54 -48 -101 -119 -124 -188
-33 -99 -26 -225 17 -317 101 -216 356 -311 570 -213 278 127 341 492 121 705
-100 97 -263 142 -400 109z"/>
<path d="M9243 9461 c-76 -35 -106 -135 -60 -201 37 -55 72 -75 128 -74 84 1
143 61 143 144 0 110 -109 178 -211 131z"/>
<path d="M22454 9451 c-56 -24 -83 -110 -48 -159 61 -87 194 -47 194 59 0 72
-81 127 -146 100z"/>
<path d="M8282 9197 c-65 -69 42 -173 108 -107 31 31 30 85 -2 113 -29 25 -80
22 -106 -6z"/>
<path d="M8960 9192 c-142 -71 -81 -295 77 -279 145 15 183 208 53 275 -53 27
-84 28 -130 4z"/>
<path d="M21224 9186 c-54 -46 -30 -127 43 -142 27 -5 37 -1 63 24 39 39 39
74 1 113 -36 35 -70 37 -107 5z"/>
<path d="M8525 9091 c-90 -25 -152 -76 -185 -153 -102 -237 149 -466 373 -340
154 85 181 296 55 422 -59 59 -169 91 -243 71z"/>
<path d="M22342 9083 c-98 -48 -109 -201 -19 -265 44 -32 131 -36 175 -9 101
64 96 221 -8 273 -43 22 -105 23 -148 1z"/>
<path d="M9355 9033 c-78 -28 -138 -68 -188 -123 -194 -215 -130 -549 130
-677 65 -32 86 -37 162 -41 145 -7 244 32 340 133 204 216 136 560 -136 688
-59 27 -81 32 -163 34 -72 3 -107 -1 -145 -14z"/>
<path d="M9967 8960 c-77 -60 -40 -180 56 -180 21 0 47 5 58 10 22 12 49 61
49 89 0 81 -100 130 -163 81z"/>
<path d="M21160 8939 c-120 -23 -246 -121 -300 -233 -128 -263 33 -570 324
-618 212 -35 426 105 481 317 80 311 -189 596 -505 534z"/>
<path d="M22595 8781 c-83 -34 -83 -162 1 -197 42 -18 80 -10 116 24 86 79 -8
217 -117 173z"/>
<path d="M22020 8707 c-158 -45 -257 -205 -228 -367 45 -251 343 -352 532
-179 75 68 101 129 101 239 0 73 -4 92 -28 137 -36 69 -88 120 -155 151 -65
29 -157 37 -222 19z"/>
<path d="M23274 8650 c-26 -10 -54 -48 -54 -72 0 -30 21 -65 47 -77 39 -18 63
-13 95 19 25 26 29 36 24 63 -11 55 -64 87 -112 67z"/>
<path d="M8313 8590 c-32 -13 -56 -55 -49 -85 18 -73 108 -89 141 -24 20 38
19 54 -7 83 -27 29 -55 38 -85 26z"/>
<path d="M22831 8564 c-323 -87 -434 -488 -200 -723 164 -163 426 -171 596
-17 212 192 183 530 -60 687 -96 63 -225 83 -336 53z"/>
<path d="M8588 8501 c-210 -68 -336 -270 -300 -481 70 -411 617 -498 810 -129
126 240 -10 546 -273 614 -78 20 -166 18 -237 -4z"/>
<path d="M20496 8254 c-125 -30 -232 -120 -289 -242 -26 -56 -32 -82 -35 -158
-7 -142 32 -237 133 -333 216 -204 559 -136 688 136 30 64 32 75 32 179 0 107
-1 112 -38 186 -62 127 -174 212 -311 237 -75 14 -106 13 -180 -5z"/>
<path d="M19960 8177 c-34 -17 -62 -74 -55 -112 3 -16 17 -42 32 -57 49 -51
146 -33 173 32 38 93 -60 182 -150 137z"/>
<path d="M9262 8095 c-39 -17 -66 -72 -57 -115 9 -39 46 -71 92 -77 32 -4 45
0 71 22 60 51 48 141 -23 171 -41 17 -42 17 -83 -1z"/>
<path d="M21495 8036 c-208 -50 -347 -239 -332 -451 25 -369 468 -537 734
-278 96 94 145 241 124 374 -40 247 -286 413 -526 355z"/>
<path d="M22052 8025 c-30 -13 -52 -47 -52 -81 0 -27 56 -74 87 -74 94 1 109
137 18 163 -11 3 -35 0 -53 -8z"/>
<path d="M19797 7897 c-159 -52 -200 -254 -73 -365 79 -69 191 -67 275 5 108
92 89 272 -36 341 -50 27 -116 35 -166 19z"/>
<path d="M22252 7853 c-98 -48 -109 -201 -19 -265 44 -32 131 -36 175 -9 101
64 96 221 -8 273 -43 22 -105 23 -148 1z"/>
<path d="M23109 7671 c-31 -32 -34 -45 -19 -86 11 -30 60 -54 96 -47 29 5 64
46 64 74 0 11 -5 29 -12 41 -29 55 -84 63 -129 18z"/>
<path d="M8385 7630 c-11 -4 -33 -22 -49 -39 -39 -41 -47 -120 -17 -169 33
-52 77 -74 139 -69 45 3 59 9 89 40 31 30 37 44 41 91 5 66 -20 115 -72 140
-36 17 -98 20 -131 6z"/>
<path d="M22723 7585 c-29 -8 -72 -24 -95 -36 -54 -27 -141 -110 -172 -163
-79 -136 -73 -334 14 -460 176 -257 544 -257 720 0 68 99 90 262 51 376 -74
216 -303 340 -518 283z"/>
<path d="M22130 7463 c-61 -22 -79 -95 -35 -138 50 -51 135 -15 135 58 0 49
-57 95 -100 80z"/>
<path d="M20840 7339 c-121 -24 -244 -118 -300 -232 -129 -262 25 -565 315
-618 133 -25 275 21 375 121 66 66 106 144 122 238 31 180 -71 376 -235 452
-98 46 -181 58 -277 39z"/>
<path d="M20088 7330 c-86 -26 -146 -100 -154 -192 -5 -45 -1 -62 23 -108 95
-184 366 -140 398 65 11 65 -11 124 -64 176 -61 62 -129 81 -203 59z"/>
<path d="M21990 7181 c-156 -51 -233 -229 -160 -370 24 -48 86 -106 132 -126
55 -22 158 -20 213 6 97 46 165 166 150 265 -20 137 -112 224 -243 230 -37 2
-78 0 -92 -5z"/>
<path d="M25399 7057 c-57 -22 -106 -55 -144 -99 -109 -128 -97 -332 26 -443
64 -57 115 -78 205 -83 73 -4 88 -1 140 22 251 115 262 458 19 584 -61 31
-187 41 -246 19z"/>
<path d="M21504 7021 c-67 -29 -84 -118 -35 -173 25 -28 36 -33 76 -33 40 0
51 5 76 33 39 44 40 99 2 142 -30 33 -82 46 -119 31z"/>
<path d="M23378 6801 c-79 -26 -136 -61 -190 -119 -198 -211 -135 -555 124
-681 264 -128 571 32 618 323 34 213 -105 426 -315 480 -78 21 -166 19 -237
-3z"/>
<path d="M9360 6740 c-615 -85 -1001 -438 -1120 -1021 -47 -228 -47 -617 0
-853 84 -427 318 -731 682 -888 193 -83 358 -113 623 -113 286 1 459 37 671
140 363 176 585 488 666 934 17 96 21 158 22 361 1 260 -8 352 -49 521 -123
498 -459 808 -982 905 -103 18 -416 27 -513 14z m327 -575 c147 -34 238 -109
303 -247 66 -142 82 -241 87 -557 5 -291 -3 -405 -39 -534 -84 -306 -308 -446
-611 -382 -219 46 -335 203 -382 512 -21 137 -21 584 0 711 46 280 165 442
365 494 81 21 196 22 277 3z"/>
<path d="M4670 5310 l0 -1400 320 0 320 0 2 940 c2 614 6 940 13 941 5 0 128
-399 272 -888 144 -488 270 -912 278 -940 l16 -53 274 0 274 0 16 53 c207 708
545 1822 554 1825 8 3 11 -246 11 -937 l0 -941 385 0 385 0 -2 1398 -3 1397
-517 3 -517 2 -13 -42 c-208 -701 -496 -1642 -504 -1645 -5 -2 -122 369 -258
824 -137 456 -253 836 -258 846 -8 16 -43 17 -528 17 l-520 0 0 -1400z"/>
<path d="M11330 5310 l0 -1400 390 0 390 0 2 637 3 637 423 -637 423 -637 434
0 c239 0 435 2 435 5 0 2 -214 329 -476 726 -262 398 -478 728 -481 735 -3 8
198 306 446 663 248 358 451 655 451 660 0 8 -124 11 -389 11 l-389 0 -438
-642 -439 -643 -3 643 -2 642 -390 0 -390 0 0 -1400z"/>
<path d="M14160 5310 l0 -1400 390 0 390 0 0 575 0 575 440 0 440 0 0 -575 0
-575 395 0 395 0 -2 1398 -3 1397 -392 3 -393 2 0 -540 0 -540 -440 0 -440 0
0 540 0 540 -390 0 -390 0 0 -1400z"/>
<path d="M17895 6678 c-17 -42 -965 -2754 -965 -2762 0 -3 159 -6 353 -6 l352
0 85 273 86 272 459 0 460 0 91 -270 91 -270 401 -3 401 -2 -83 242 c-93 270
-858 2474 -876 2526 l-12 32 -414 0 -415 0 -14 -32z m521 -1243 c79 -248 144
-456 144 -462 0 -10 -67 -13 -300 -13 -165 0 -300 3 -300 6 0 4 63 203 139
443 76 240 142 446 146 459 4 13 11 22 17 20 6 -2 75 -206 154 -453z"/>
<path d="M21550 6664 c-208 -56 -347 -270 -312 -480 48 -292 356 -453 618
-324 167 82 268 279 235 458 -47 256 -292 413 -541 346z"/>
<path d="M22620 6640 c-57 -12 -87 -27 -129 -65 -121 -109 -109 -314 23 -402
61 -41 117 -57 182 -50 206 21 304 263 174 427 -53 67 -168 108 -250 90z"/>
<path d="M22188 6570 c-25 -26 -29 -36 -24 -63 15 -73 96 -97 142 -43 32 37
30 71 -5 107 -39 38 -74 38 -113 -1z"/>
<path d="M24722 6564 c-89 -44 -141 -127 -142 -225 0 -108 54 -199 145 -244
55 -27 175 -28 229 -1 93 47 145 131 146 237 0 151 -108 258 -261 259 -50 0
-77 -6 -117 -26z"/>
<path d="M25205 6428 c-31 -17 -45 -39 -45 -74 0 -49 30 -79 80 -79 49 0 80
29 80 75 0 42 -9 59 -41 75 -33 18 -47 18 -74 3z"/>
<path d="M21055 6408 c-31 -18 -44 -40 -45 -74 0 -43 27 -73 72 -80 30 -5 41
-2 62 19 42 42 35 107 -15 132 -33 18 -47 18 -74 3z"/>
<path d="M25716 6389 c-19 -15 -26 -30 -26 -55 0 -47 14 -70 50 -83 82 -28
147 73 85 134 -30 31 -73 32 -109 4z"/>
<path d="M22232 6283 c-16 -6 -42 -56 -42 -82 0 -26 39 -69 65 -72 38 -5 75
11 90 41 21 40 19 54 -11 89 -25 30 -64 39 -102 24z"/>
<path d="M25422 6229 c-199 -33 -353 -216 -354 -420 -1 -96 21 -171 71 -246
154 -229 481 -258 670 -58 241 255 101 669 -246 725 -65 11 -68 11 -141 -1z"/>
<path d="M24091 6135 c-330 -93 -436 -496 -192 -729 168 -160 418 -165 588
-12 238 215 163 612 -136 726 -72 28 -190 34 -260 15z"/>
<path d="M22263 6015 c-222 -49 -370 -267 -334 -487 6 -39 24 -96 39 -126 52
-107 182 -211 282 -227 21 -3 10 3 -27 15 -189 63 -311 261 -283 461 13 88 68
197 128 250 26 23 76 56 112 73 61 29 72 31 176 31 107 0 112 -1 185 -37 85
-42 145 -99 188 -178 35 -63 42 -61 10 3 -88 171 -288 265 -476 222z"/>
<path d="M23004 5976 c-43 -19 -101 -82 -115 -123 -19 -59 -7 -147 27 -195 44
-63 103 -90 186 -86 82 4 139 39 176 108 19 37 23 56 20 111 -4 76 -32 127
-94 169 -45 30 -150 39 -200 16z"/>
<path d="M24804 5846 c-27 -27 -34 -42 -34 -74 0 -76 74 -127 143 -99 111 47
78 207 -43 207 -23 0 -42 -10 -66 -34z"/>
<path d="M21689 5721 c-24 -24 -29 -38 -29 -76 0 -100 105 -142 176 -71 70 70
26 175 -74 176 -35 0 -49 -6 -73 -29z"/>
<path d="M22771 5684 c0 -11 3 -14 6 -6 3 7 2 16 -1 19 -3 4 -6 -2 -5 -13z"/>
<path d="M23459 5677 c-58 -39 -81 -84 -77 -145 8 -88 67 -144 153 -144 119 0
193 126 136 232 -39 74 -145 102 -212 57z"/>
<path d="M22783 5595 c0 -33 2 -45 4 -27 2 18 2 45 0 60 -2 15 -4 0 -4 -33z"/>
<path d="M22771 5504 c0 -11 3 -14 6 -6 3 7 2 16 -1 19 -3 4 -6 -2 -5 -13z"/>
<path d="M22761 5473 c-1 -6 -4 -20 -7 -30 -5 -17 -5 -17 6 0 6 10 9 23 6 30
-3 9 -5 9 -5 0z"/>
<path d="M24793 5435 c-77 -21 -130 -51 -190 -107 -99 -95 -138 -194 -131
-339 4 -76 9 -97 41 -162 160 -323 614 -323 774 0 33 67 38 86 41 167 3 74 0
103 -18 155 -74 219 -301 344 -517 286z"/>
<path d="M23010 5429 c-120 -23 -246 -121 -300 -233 -127 -263 28 -564 318
-618 211 -39 432 105 487 317 80 310 -189 596 -505 534z"/>
<path d="M22722 5379 c-52 -90 -134 -155 -240 -190 -37 -13 -45 -18 -22 -14
51 8 131 49 183 95 42 37 114 136 106 145 -3 2 -15 -14 -27 -36z"/>
<path d="M23664 5282 c-106 -85 -5 -239 116 -177 37 19 50 43 50 95 0 59 -42
100 -102 100 -26 0 -52 -7 -64 -18z"/>
<path d="M25503 5273 c-30 -6 -71 -46 -79 -77 -23 -93 82 -168 163 -117 100
63 34 216 -84 194z"/>
<path d="M24305 5248 c-41 -23 -56 -68 -39 -113 10 -25 62 -47 95 -40 70 16
83 117 18 150 -33 18 -47 18 -74 3z"/>
<path d="M22317 5163 c18 -2 50 -2 70 0 21 2 7 4 -32 4 -38 0 -55 -2 -38 -4z"/>
<path d="M23920 5094 c-210 -56 -349 -271 -312 -484 61 -355 489 -489 736
-231 95 101 139 237 117 363 -45 257 -293 418 -541 352z"/>
<path d="M22453 5051 c-39 -24 -53 -49 -53 -93 0 -97 122 -141 184 -67 77 91
-31 222 -131 160z"/>
<path d="M23364 4532 c-106 -85 -5 -239 116 -177 37 19 50 43 50 95 0 59 -42
100 -102 100 -26 0 -52 -7 -64 -18z"/>
<path d="M5923 3250 c-179 -38 -295 -171 -323 -372 -29 -203 65 -402 224 -477
108 -50 264 -49 370 3 106 52 193 173 217 301 15 79 6 205 -20 280 -39 112
-141 216 -243 249 -63 20 -170 28 -225 16z m213 -65 c97 -60 153 -181 161
-345 8 -172 -33 -300 -124 -379 -49 -44 -99 -61 -175 -61 -65 0 -144 36 -184
83 -103 122 -131 360 -64 540 25 68 99 153 155 179 63 29 168 22 231 -17z"/>
<path d="M7685 3251 c-108 -27 -175 -113 -175 -226 0 -104 32 -145 207 -266
126 -87 153 -122 153 -197 0 -105 -50 -162 -143 -162 -94 0 -154 47 -192 151
-31 87 -50 91 -42 9 4 -35 7 -85 7 -111 0 -40 3 -49 17 -49 10 0 61 -10 113
-21 84 -19 102 -20 153 -9 109 22 187 129 187 254 -1 88 -55 155 -205 256 -94
62 -132 95 -151 132 -31 60 -7 154 50 190 24 15 44 18 89 15 74 -4 110 -36
136 -121 30 -97 44 -85 35 30 -3 55 -9 102 -13 105 -7 6 -157 30 -181 28 -8
-1 -28 -4 -45 -8z"/>
<path d="M9925 3228 c-8 -18 -76 -195 -150 -392 -141 -376 -157 -408 -219
-424 -68 -18 -31 -27 101 -26 139 1 178 10 113 27 -73 19 -76 43 -23 204 l37
113 117 0 116 0 36 -119 c20 -65 37 -130 37 -144 0 -31 -33 -57 -72 -57 -16 0
-28 -6 -28 -12 0 -10 43 -13 180 -13 128 0 180 3 180 11 0 7 -15 15 -34 18
-41 8 -81 38 -100 75 -8 15 -69 192 -136 394 -66 201 -125 369 -130 372 -6 3
-17 -9 -25 -27z m30 -299 c25 -79 45 -147 45 -151 0 -5 -45 -8 -101 -8 -77 0
-100 3 -97 13 3 6 26 76 53 155 26 79 49 141 51 139 3 -2 25 -69 49 -148z"/>
<path d="M10595 3251 c-108 -27 -175 -113 -175 -226 0 -104 32 -145 207 -266
126 -87 153 -122 153 -197 0 -105 -50 -162 -143 -162 -94 0 -154 47 -192 151
-31 87 -50 91 -42 9 4 -35 7 -85 7 -111 0 -40 3 -49 17 -49 10 0 61 -10 113
-21 84 -19 102 -20 153 -9 109 22 187 129 187 254 -1 88 -55 155 -205 256 -94
62 -132 95 -151 132 -31 60 -7 154 50 190 24 15 44 18 89 15 74 -4 110 -36
136 -121 30 -97 44 -85 35 30 -3 55 -9 102 -13 105 -7 6 -157 30 -181 28 -8
-1 -28 -4 -45 -8z"/>
<path d="M11165 3251 c-108 -27 -175 -113 -175 -226 0 -104 32 -145 207 -266
126 -87 153 -122 153 -197 0 -105 -50 -162 -143 -162 -94 0 -154 47 -192 151
-31 87 -50 91 -42 9 4 -35 7 -85 7 -111 0 -40 3 -49 17 -49 10 0 61 -10 113
-21 84 -19 102 -20 153 -9 109 22 187 129 187 254 -1 88 -55 155 -205 256 -94
62 -132 95 -151 132 -31 60 -7 154 50 190 24 15 44 18 89 15 74 -4 110 -36
136 -121 30 -97 44 -85 35 30 -3 55 -9 102 -13 105 -7 6 -157 30 -181 28 -8
-1 -28 -4 -45 -8z"/>
<path d="M11873 3250 c-179 -38 -295 -171 -323 -372 -29 -203 65 -402 224
-477 108 -50 264 -49 370 3 106 52 193 173 217 301 15 79 6 205 -20 280 -39
112 -141 216 -243 249 -63 20 -170 28 -225 16z m213 -65 c97 -60 153 -181 161
-345 8 -172 -33 -300 -124 -379 -49 -44 -99 -61 -175 -61 -65 0 -144 36 -184
83 -103 122 -131 360 -64 540 25 68 99 153 155 179 63 29 168 22 231 -17z"/>
<path d="M12827 3250 c-268 -46 -424 -352 -318 -629 54 -143 164 -228 325
-252 58 -9 89 -8 166 6 52 9 114 19 137 22 l41 5 17 97 c10 53 18 98 19 101 0
3 -3 7 -9 9 -5 2 -21 -17 -35 -42 -104 -188 -330 -226 -464 -77 -222 247 -93
730 196 730 106 0 181 -48 229 -146 34 -69 55 -83 46 -31 -3 17 -9 59 -12 92
-11 110 1 100 -137 113 -134 13 -131 13 -201 2z"/>
<path d="M14145 3228 c-8 -18 -76 -195 -150 -392 -141 -376 -157 -408 -219
-424 -68 -18 -31 -27 101 -26 139 1 178 10 113 27 -73 19 -76 43 -23 204 l37
113 117 0 116 0 36 -119 c20 -65 37 -130 37 -144 0 -31 -33 -57 -72 -57 -16 0
-28 -6 -28 -12 0 -10 43 -13 180 -13 128 0 180 3 180 11 0 7 -15 15 -34 18
-41 8 -81 38 -100 75 -8 15 -69 192 -136 394 -66 201 -125 369 -130 372 -6 3
-17 -9 -25 -27z m30 -299 c25 -79 45 -147 45 -151 0 -5 -45 -8 -101 -8 -77 0
-100 3 -97 13 3 6 26 76 53 155 26 79 49 141 51 139 3 -2 25 -69 49 -148z"/>
<path d="M16243 3250 c-179 -38 -295 -171 -323 -372 -29 -203 65 -402 224
-477 108 -50 264 -49 370 3 106 52 193 173 217 301 15 79 6 205 -20 280 -39
112 -141 216 -243 249 -63 20 -170 28 -225 16z m213 -65 c97 -60 153 -181 161
-345 8 -172 -33 -300 -124 -379 -49 -44 -99 -61 -175 -61 -65 0 -144 36 -184
83 -103 122 -131 360 -64 540 25 68 99 153 155 179 63 29 168 22 231 -17z"/>
<path d="M18423 3250 c-179 -38 -295 -171 -323 -372 -29 -203 65 -402 224
-477 108 -50 264 -49 370 3 106 52 193 173 217 301 15 79 6 205 -20 280 -39
112 -141 216 -243 249 -63 20 -170 28 -225 16z m213 -65 c97 -60 153 -181 161
-345 8 -172 -33 -300 -124 -379 -49 -44 -99 -61 -175 -61 -65 0 -144 36 -184
83 -103 122 -131 360 -64 540 25 68 99 153 155 179 63 29 168 22 231 -17z"/>
<path d="M4700 3235 c0 -6 20 -16 44 -23 58 -15 74 -36 202 -258 l104 -179 0
-156 c0 -149 -1 -156 -22 -176 -13 -12 -40 -24 -60 -28 -21 -4 -38 -12 -38
-19 0 -8 51 -11 175 -11 123 0 175 3 175 11 0 6 -17 14 -38 18 -70 11 -77 28
-80 200 l-3 151 126 200 c70 110 134 208 143 218 8 9 35 23 59 30 24 7 44 17
44 21 -1 12 -281 12 -281 0 0 -5 14 -13 30 -19 43 -15 64 -39 57 -67 -7 -25
-187 -332 -192 -326 -21 22 -185 327 -185 344 0 25 34 54 62 54 10 0 18 6 18
13 0 9 -41 12 -170 12 -111 0 -170 -4 -170 -10z"/>
<path d="M6510 3233 c0 -6 19 -14 42 -18 23 -4 52 -18 66 -32 l24 -24 -7 -222
c-4 -122 -10 -280 -14 -351 -8 -146 -16 -160 -92 -172 -22 -4 -39 -12 -39 -18
0 -8 47 -11 155 -11 108 0 155 3 155 11 0 6 -17 14 -38 18 -22 3 -51 15 -65
27 l-27 20 1 277 c0 152 3 295 7 316 l7 40 294 -367 c161 -202 296 -367 300
-367 9 0 21 366 21 612 0 195 8 222 72 238 106 27 91 32 -97 34 -118 1 -155
-2 -155 -11 0 -7 9 -13 20 -13 37 0 97 -31 109 -56 15 -33 16 -588 1 -579 -6
4 -129 153 -274 333 l-263 327 -101 0 c-71 0 -102 -4 -102 -12z"/>
<path d="M8050 3233 c0 -6 18 -14 40 -18 25 -4 47 -16 60 -32 19 -25 20 -41
20 -368 0 -327 -1 -343 -20 -368 -13 -16 -35 -28 -60 -32 -22 -4 -40 -12 -40
-18 0 -16 610 -17 610 -2 1 6 16 50 35 100 19 50 30 94 25 99 -4 4 -13 -2 -20
-14 -23 -43 -85 -102 -132 -126 -41 -21 -61 -24 -152 -24 -141 0 -136 -7 -136
212 l0 168 94 0 c114 0 132 -11 150 -90 23 -99 32 -68 32 105 0 171 -8 201
-32 110 -18 -74 -38 -85 -151 -85 l-94 0 3 161 c4 195 -1 189 135 189 133 0
180 -25 218 -117 16 -38 40 -45 31 -10 -3 12 -10 47 -16 77 -6 30 -13 64 -15
75 -4 19 -12 20 -295 20 -214 0 -290 -3 -290 -12z"/>
<path d="M8810 3234 c0 -6 18 -14 40 -18 22 -3 49 -15 60 -26 19 -19 20 -34
20 -375 0 -341 -1 -356 -20 -375 -11 -11 -38 -23 -60 -26 -22 -4 -40 -12 -40
-18 0 -8 54 -11 180 -11 126 0 180 3 180 11 0 6 -18 14 -40 18 -88 14 -93 40
-88 465 l3 293 24 19 c13 11 41 22 62 25 22 4 39 12 39 18 0 8 -54 11 -180 11
-126 0 -180 -3 -180 -11z"/>
<path d="M13310 3234 c0 -6 18 -14 40 -18 22 -3 49 -15 60 -26 19 -19 20 -34
20 -375 0 -341 -1 -356 -20 -375 -11 -11 -38 -23 -60 -26 -22 -4 -40 -12 -40
-18 0 -8 54 -11 180 -11 126 0 180 3 180 11 0 6 -18 14 -40 18 -88 14 -93 40
-88 465 l3 293 24 19 c13 11 41 22 62 25 22 4 39 12 39 18 0 8 -54 11 -180 11
-126 0 -180 -3 -180 -11z"/>
<path d="M14605 3148 c-30 -107 -31 -111 -18 -115 5 -2 15 12 21 31 17 46 91
110 144 125 24 7 70 11 103 9 l60 -3 3 -367 c2 -356 2 -368 -18 -388 -11 -11
-38 -23 -60 -26 -22 -4 -40 -12 -40 -18 0 -8 54 -11 180 -11 126 0 180 3 180
11 0 6 -17 14 -38 17 -52 9 -72 26 -82 72 -11 46 -12 647 -1 685 6 23 12 25
71 28 36 2 80 0 98 -3 46 -8 96 -56 122 -116 12 -28 25 -47 30 -43 4 5 0 54
-8 109 l-16 100 -352 0 -352 0 -27 -97z"/>
<path d="M15440 3234 c0 -6 18 -14 40 -18 22 -3 49 -15 60 -26 19 -19 20 -34
20 -375 0 -341 -1 -356 -20 -375 -11 -11 -38 -23 -60 -26 -22 -4 -40 -12 -40
-18 0 -8 54 -11 180 -11 126 0 180 3 180 11 0 6 -18 14 -40 18 -88 14 -93 40
-88 465 l3 293 24 19 c13 11 41 22 62 25 22 4 39 12 39 18 0 8 -54 11 -180 11
-126 0 -180 -3 -180 -11z"/>
<path d="M16830 3233 c0 -6 19 -14 42 -18 23 -4 52 -18 66 -32 l24 -24 -7
-222 c-4 -122 -10 -280 -14 -351 -8 -146 -16 -160 -92 -172 -22 -4 -39 -12
-39 -18 0 -8 47 -11 155 -11 108 0 155 3 155 11 0 6 -17 14 -38 18 -22 3 -51
15 -65 27 l-27 20 1 277 c0 152 3 295 7 316 l7 40 294 -367 c161 -202 296
-367 300 -367 9 0 21 366 21 612 0 195 8 222 72 238 106 27 91 32 -97 34 -118
1 -155 -2 -155 -11 0 -7 9 -13 20 -13 37 0 97 -31 109 -56 15 -33 16 -588 1
-579 -6 4 -129 153 -274 333 l-263 327 -101 0 c-71 0 -102 -4 -102 -12z"/>
<path d="M19010 3233 c0 -6 18 -14 40 -18 25 -4 47 -16 60 -32 19 -25 20 -41
20 -368 0 -327 -1 -343 -20 -368 -13 -16 -35 -28 -60 -32 -22 -4 -40 -12 -40
-18 0 -9 50 -12 180 -12 104 0 179 4 177 9 -2 5 -24 15 -50 23 -73 21 -77 32
-77 225 l0 168 90 0 c76 0 93 -3 109 -19 20 -20 41 -79 41 -114 0 -10 5 -17
11 -15 13 4 15 321 2 325 -4 2 -14 -21 -21 -49 -17 -77 -36 -88 -143 -88 l-89
0 0 155 c0 196 -1 195 129 195 49 0 102 -5 118 -11 40 -15 91 -67 104 -106 11
-35 29 -45 28 -15 0 9 -8 52 -17 95 l-18 78 -287 2 c-212 1 -287 -1 -287 -10z"/>
<path d="M5975 1978 c-8 -18 -76 -195 -150 -392 -141 -376 -157 -408 -219
-424 -68 -18 -31 -27 101 -26 139 1 178 10 113 27 -73 19 -76 43 -23 204 l37
113 117 0 116 0 36 -119 c20 -65 37 -130 37 -144 0 -31 -33 -57 -72 -57 -16 0
-28 -6 -28 -12 0 -10 43 -13 180 -13 128 0 180 3 180 11 0 7 -15 15 -34 18
-41 8 -81 38 -100 75 -8 15 -69 192 -136 394 -66 201 -125 369 -130 372 -6 3
-17 -9 -25 -27z m30 -299 c25 -79 45 -147 45 -151 0 -5 -45 -8 -101 -8 -77 0
-100 3 -97 13 3 6 26 76 53 155 26 79 49 141 51 139 3 -2 25 -69 49 -148z"/>
<path d="M10135 2001 c-108 -27 -175 -113 -175 -226 0 -104 32 -145 207 -266
126 -87 153 -122 153 -197 0 -105 -50 -162 -143 -162 -94 0 -154 47 -192 151
-31 87 -50 91 -42 9 4 -35 7 -85 7 -111 0 -40 3 -49 17 -49 10 0 61 -10 113
-21 84 -19 102 -20 153 -9 109 22 187 129 187 254 -1 88 -55 155 -205 256 -94
62 -132 95 -151 132 -31 60 -7 154 50 190 24 15 44 18 89 15 74 -4 110 -36
136 -121 30 -97 44 -85 35 30 -3 55 -9 102 -13 105 -7 6 -157 30 -181 28 -8
-1 -28 -4 -45 -8z"/>
<path d="M12155 2001 c-108 -27 -175 -113 -175 -226 0 -104 32 -145 207 -266
126 -87 153 -122 153 -197 0 -105 -50 -162 -143 -162 -94 0 -154 47 -192 151
-31 87 -50 91 -42 9 4 -35 7 -85 7 -111 0 -40 3 -49 17 -49 10 0 61 -10 113
-21 84 -19 102 -20 153 -9 109 22 187 129 187 254 -1 88 -55 155 -205 256 -94
62 -132 95 -151 132 -31 60 -7 154 50 190 24 15 44 18 89 15 74 -4 110 -36
136 -121 30 -97 44 -85 35 30 -3 55 -9 102 -13 105 -7 6 -157 30 -181 28 -8
-1 -28 -4 -45 -8z"/>
<path d="M12863 2000 c-179 -38 -295 -171 -323 -372 -29 -203 65 -402 224
-477 108 -50 264 -49 370 3 106 52 193 173 217 301 15 79 6 205 -20 280 -39
112 -141 216 -243 249 -63 20 -170 28 -225 16z m213 -65 c97 -60 153 -181 161
-345 8 -172 -33 -300 -124 -379 -49 -44 -99 -61 -175 -61 -65 0 -144 36 -184
83 -103 122 -131 360 -64 540 25 68 99 153 155 179 63 29 168 22 231 -17z"/>
<path d="M13817 2000 c-268 -46 -424 -352 -318 -629 54 -143 164 -228 325
-252 58 -9 89 -8 166 6 52 9 114 19 137 22 l41 5 17 97 c10 53 18 98 19 101 0
3 -3 7 -9 9 -5 2 -21 -17 -35 -42 -104 -188 -330 -226 -464 -77 -222 247 -93
730 196 730 106 0 181 -48 229 -146 34 -69 55 -83 46 -31 -3 17 -9 59 -12 92
-11 110 1 100 -137 113 -134 13 -131 13 -201 2z"/>
<path d="M15135 1978 c-8 -18 -76 -195 -150 -392 -141 -376 -157 -408 -219
-424 -68 -18 -31 -27 101 -26 139 1 178 10 113 27 -73 19 -76 43 -23 204 l37
113 117 0 116 0 36 -119 c20 -65 37 -130 37 -144 0 -31 -33 -57 -72 -57 -16 0
-28 -6 -28 -12 0 -10 43 -13 180 -13 128 0 180 3 180 11 0 7 -15 15 -34 18
-41 8 -81 38 -100 75 -8 15 -69 192 -136 394 -66 201 -125 369 -130 372 -6 3
-17 -9 -25 -27z m30 -299 c25 -79 45 -147 45 -151 0 -5 -45 -8 -101 -8 -77 0
-100 3 -97 13 3 6 26 76 53 155 26 79 49 141 51 139 3 -2 25 -69 49 -148z"/>
<path d="M16775 2001 c-108 -27 -175 -113 -175 -226 0 -104 32 -145 207 -266
126 -87 153 -122 153 -197 0 -105 -50 -162 -143 -162 -94 0 -154 47 -192 151
-31 87 -50 91 -42 9 4 -35 7 -85 7 -111 0 -40 3 -49 17 -49 10 0 61 -10 113
-21 84 -19 102 -20 153 -9 109 22 187 129 187 254 -1 88 -55 155 -205 256 -94
62 -132 95 -151 132 -31 60 -7 154 50 190 24 15 44 18 89 15 74 -4 110 -36
136 -121 30 -97 44 -85 35 30 -3 55 -9 102 -13 105 -7 6 -157 30 -181 28 -8
-1 -28 -4 -45 -8z"/>
<path d="M17507 2000 c-268 -46 -424 -352 -318 -629 54 -143 164 -228 325
-252 58 -9 89 -8 166 6 52 9 114 19 137 22 l41 5 17 97 c10 53 18 98 19 101 0
3 -3 7 -9 9 -5 2 -21 -17 -35 -42 -104 -188 -330 -226 -464 -77 -222 247 -93
730 196 730 106 0 181 -48 229 -146 34 -69 55 -83 46 -31 -3 17 -9 59 -12 92
-11 110 1 100 -137 113 -134 13 -131 13 -201 2z"/>
<path d="M20537 2000 c-268 -46 -424 -352 -318 -629 54 -143 164 -228 325
-252 58 -9 89 -8 166 6 52 9 114 19 137 22 l41 5 17 97 c10 53 18 98 19 101 0
3 -3 7 -9 9 -5 2 -21 -17 -35 -42 -104 -188 -330 -226 -464 -77 -222 247 -93
730 196 730 106 0 181 -48 229 -146 34 -69 55 -83 46 -31 -3 17 -9 59 -12 92
-11 110 1 100 -137 113 -134 13 -131 13 -201 2z"/>
<path d="M2664 1988 c-6 -9 6 -15 49 -23 22 -4 45 -18 57 -32 19 -25 20 -42
20 -367 0 -386 2 -376 -76 -399 -25 -7 -46 -17 -47 -21 -1 -5 78 -9 176 -10
125 -1 177 2 177 10 0 6 -17 14 -38 17 -76 13 -77 14 -80 211 l-3 176 221 0
222 0 -4 -169 c-3 -191 -9 -206 -80 -217 -21 -4 -38 -12 -38 -18 0 -8 52 -11
175 -11 124 0 175 3 175 11 0 7 -17 15 -37 19 -21 4 -48 16 -60 28 l-23 20 0
353 c0 352 0 353 22 374 12 11 39 23 60 26 21 4 38 12 38 18 0 8 -52 11 -175
11 -123 0 -175 -3 -175 -11 0 -6 17 -14 38 -18 71 -11 77 -26 80 -212 l4 -164
-222 0 -221 0 3 171 c3 191 4 193 80 206 21 3 38 11 38 17 0 12 -348 17 -356
4z"/>
<path d="M3620 1984 c0 -6 17 -14 38 -17 80 -13 76 0 83 -324 5 -267 7 -292
28 -345 40 -102 116 -160 235 -180 132 -22 232 26 286 136 42 85 50 151 50
427 0 265 -2 259 78 282 22 7 40 16 41 21 0 5 -62 9 -139 10 -106 1 -140 -2
-140 -11 0 -7 9 -13 20 -13 11 0 36 -6 55 -14 53 -23 58 -54 53 -337 -6 -265
-13 -310 -63 -376 -74 -96 -267 -98 -335 -3 -41 58 -51 113 -57 335 -9 332 1
377 87 391 22 4 40 12 40 18 0 8 -54 11 -180 11 -126 0 -180 -3 -180 -11z"/>
<path d="M4560 1983 c0 -7 9 -13 20 -13 36 0 90 -28 101 -53 9 -19 4 -98 -20
-348 -18 -178 -37 -336 -43 -351 -10 -27 -68 -58 -108 -58 -11 0 -20 -6 -20
-12 0 -10 38 -13 155 -13 108 0 155 3 155 11 0 6 -18 14 -40 18 -56 9 -80 36
-80 89 0 60 38 579 43 583 2 2 62 -160 133 -361 71 -201 133 -364 139 -362 5
2 71 171 145 375 74 204 138 373 141 376 3 3 11 -139 17 -317 12 -309 11 -323
-6 -347 -12 -15 -35 -28 -61 -34 -22 -5 -41 -14 -41 -20 0 -8 55 -11 180 -11
137 0 180 3 180 13 0 6 -9 12 -20 12 -11 0 -36 6 -55 14 -26 11 -36 23 -44 53
-10 36 -31 465 -31 621 0 85 16 108 80 118 22 4 40 12 40 18 0 7 -37 11 -118
11 l-118 0 -43 -120 c-175 -486 -205 -565 -211 -558 -4 4 -56 148 -115 318
-59 171 -112 321 -117 335 -8 25 -10 25 -123 25 -85 0 -115 -3 -115 -12z"/>
<path d="M6440 1983 c0 -6 19 -14 42 -18 23 -4 52 -18 66 -32 l24 -24 -7 -222
c-4 -122 -10 -280 -14 -351 -8 -146 -16 -160 -92 -172 -22 -4 -39 -12 -39 -18
0 -8 47 -11 155 -11 108 0 155 3 155 11 0 6 -17 14 -38 18 -22 3 -51 15 -65
27 l-27 20 1 277 c0 152 3 295 7 316 l7 40 294 -367 c161 -202 296 -367 300
-367 9 0 21 366 21 612 0 195 8 222 72 238 106 27 91 32 -97 34 -118 1 -155
-2 -155 -11 0 -7 9 -13 20 -13 37 0 97 -31 109 -56 15 -33 16 -588 1 -579 -6
4 -129 153 -274 333 l-263 327 -101 0 c-71 0 -102 -4 -102 -12z"/>
<path d="M7440 1984 c0 -6 18 -14 40 -18 22 -3 49 -15 60 -26 19 -19 20 -34
20 -375 0 -341 -1 -356 -20 -375 -11 -11 -38 -23 -60 -26 -22 -4 -40 -12 -40
-18 0 -8 54 -11 180 -11 126 0 180 3 180 11 0 6 -18 14 -40 18 -88 14 -93 40
-88 465 l3 293 24 19 c13 11 41 22 62 25 22 4 39 12 39 18 0 8 -54 11 -180 11
-126 0 -180 -3 -180 -11z"/>
<path d="M7895 1898 c-30 -107 -31 -111 -18 -115 5 -2 15 12 21 31 17 46 91
110 144 125 24 7 70 11 103 9 l60 -3 3 -367 c2 -356 2 -368 -18 -388 -11 -11
-38 -23 -60 -26 -22 -4 -40 -12 -40 -18 0 -8 54 -11 180 -11 126 0 180 3 180
11 0 6 -17 14 -38 17 -52 9 -72 26 -82 72 -11 46 -12 647 -1 685 6 23 12 25
71 28 36 2 80 0 98 -3 46 -8 96 -56 122 -116 12 -28 25 -47 30 -43 4 5 0 54
-8 109 l-16 100 -352 0 -352 0 -27 -97z"/>
<path d="M8730 1984 c0 -6 18 -14 40 -18 22 -3 49 -15 60 -26 19 -19 20 -34
20 -375 0 -341 -1 -356 -20 -375 -11 -11 -38 -23 -60 -26 -22 -4 -40 -12 -40
-18 0 -8 54 -11 180 -11 126 0 180 3 180 11 0 6 -18 14 -40 18 -88 14 -93 40
-88 465 l3 293 24 19 c13 11 41 22 62 25 22 4 39 12 39 18 0 8 -54 11 -180 11
-126 0 -180 -3 -180 -11z"/>
<path d="M9200 1983 c0 -6 18 -14 40 -18 25 -4 47 -16 60 -32 19 -25 20 -41
20 -368 0 -327 -1 -343 -20 -368 -13 -16 -35 -28 -60 -32 -22 -4 -40 -12 -40
-18 0 -16 610 -17 610 -2 1 6 16 50 35 100 19 50 30 94 25 99 -4 4 -13 -2 -20
-14 -23 -43 -85 -102 -132 -126 -41 -21 -61 -24 -152 -24 -141 0 -136 -7 -136
212 l0 168 94 0 c114 0 132 -11 150 -90 23 -99 32 -68 32 105 0 171 -8 201
-32 110 -18 -74 -38 -85 -151 -85 l-94 0 3 161 c4 195 -1 189 135 189 133 0
180 -25 218 -117 16 -38 40 -45 31 -10 -3 12 -10 47 -16 77 -6 30 -13 64 -15
75 -4 19 -12 20 -295 20 -214 0 -290 -3 -290 -12z"/>
<path d="M14310 1984 c0 -6 18 -14 40 -18 22 -3 49 -15 60 -26 19 -19 20 -34
20 -375 0 -341 -1 -356 -20 -375 -11 -11 -38 -23 -60 -26 -22 -4 -40 -12 -40
-18 0 -8 54 -11 180 -11 126 0 180 3 180 11 0 6 -18 14 -40 18 -88 14 -93 40
-88 465 l3 293 24 19 c13 11 41 22 62 25 22 4 39 12 39 18 0 8 -54 11 -180 11
-126 0 -180 -3 -180 -11z"/>
<path d="M15594 1988 c-6 -9 6 -15 49 -23 22 -4 45 -18 57 -32 19 -25 20 -42
20 -367 0 -386 2 -376 -76 -399 -25 -7 -45 -17 -45 -21 1 -9 611 -14 611 -5 0
10 30 182 37 207 9 39 -22 25 -42 -18 -27 -60 -61 -102 -103 -127 -31 -20 -51
-23 -133 -23 -147 0 -134 -36 -134 385 l0 357 24 19 c13 11 41 22 62 25 22 4
39 12 39 18 0 12 -358 17 -366 4z"/>
<path d="M18000 1984 c0 -6 18 -14 40 -18 22 -3 49 -15 60 -26 19 -19 20 -34
20 -375 0 -341 -1 -356 -20 -375 -11 -11 -38 -23 -60 -26 -22 -4 -40 -12 -40
-18 0 -8 54 -11 180 -11 126 0 180 3 180 11 0 6 -18 14 -40 18 -88 14 -93 40
-88 465 l3 293 24 19 c13 11 41 22 62 25 22 4 39 12 39 18 0 8 -54 11 -180 11
-126 0 -180 -3 -180 -11z"/>
<path d="M18470 1983 c0 -6 18 -14 40 -18 25 -4 47 -16 60 -32 19 -25 20 -41
20 -368 0 -327 -1 -343 -20 -368 -13 -16 -35 -28 -60 -32 -22 -4 -40 -12 -40
-18 0 -16 610 -17 610 -2 1 6 16 50 35 100 19 50 30 94 25 99 -4 4 -13 -2 -20
-14 -23 -43 -85 -102 -132 -126 -41 -21 -61 -24 -152 -24 -141 0 -136 -7 -136
212 l0 168 94 0 c114 0 132 -11 150 -90 23 -99 32 -68 32 105 0 171 -8 201
-32 110 -18 -74 -38 -85 -151 -85 l-94 0 3 161 c4 195 -1 189 135 189 133 0
180 -25 218 -117 16 -38 40 -45 31 -10 -3 12 -10 47 -16 77 -6 30 -13 64 -15
75 -4 19 -12 20 -295 20 -214 0 -290 -3 -290 -12z"/>
<path d="M19200 1983 c0 -6 19 -14 42 -18 23 -4 52 -18 66 -32 l24 -24 -7
-222 c-4 -122 -10 -280 -14 -351 -8 -146 -16 -160 -92 -172 -22 -4 -39 -12
-39 -18 0 -8 47 -11 155 -11 108 0 155 3 155 11 0 6 -17 14 -38 18 -22 3 -51
15 -65 27 l-27 20 1 277 c0 152 3 295 7 316 l7 40 294 -367 c161 -202 296
-367 300 -367 9 0 21 366 21 612 0 195 8 222 72 238 106 27 91 32 -97 34 -118
1 -155 -2 -155 -11 0 -7 9 -13 20 -13 37 0 97 -31 109 -56 15 -33 16 -588 1
-579 -6 4 -129 153 -274 333 l-263 327 -101 0 c-71 0 -102 -4 -102 -12z"/>
<path d="M20990 1983 c0 -6 18 -14 40 -18 25 -4 47 -16 60 -32 19 -25 20 -41
20 -368 0 -327 -1 -343 -20 -368 -13 -16 -35 -28 -60 -32 -22 -4 -40 -12 -40
-18 0 -16 610 -17 610 -2 1 6 16 50 35 100 19 50 30 94 25 99 -4 4 -13 -2 -20
-14 -23 -43 -85 -102 -132 -126 -41 -21 -61 -24 -152 -24 -141 0 -136 -7 -136
212 l0 168 94 0 c114 0 132 -11 150 -90 23 -99 32 -68 32 105 0 171 -8 201
-32 110 -18 -74 -38 -85 -151 -85 l-94 0 3 161 c4 195 -1 189 135 189 133 0
180 -25 218 -117 16 -38 40 -45 31 -10 -3 12 -10 47 -16 77 -6 30 -13 64 -15
75 -4 19 -12 20 -295 20 -214 0 -290 -3 -290 -12z"/>
<path d="M11046 1920 c-100 -31 -147 -178 -91 -284 14 -26 25 -49 25 -50 0 -2
-21 -18 -48 -34 -132 -86 -175 -177 -140 -296 17 -55 84 -122 138 -136 85 -23
181 11 253 89 l49 52 61 -65 c47 -49 72 -67 105 -76 70 -18 150 10 186 65 23
35 10 50 -21 25 -60 -47 -124 -19 -215 97 l-47 59 70 100 c91 128 115 152 178
173 29 9 51 21 49 25 -2 5 -76 9 -166 10 -124 1 -162 -2 -162 -11 0 -7 11 -13
25 -13 15 0 39 -7 55 -15 25 -13 30 -22 30 -53 0 -36 -8 -52 -89 -182 -5 -8
-11 -13 -14 -10 -5 6 -156 199 -169 217 -6 7 6 22 38 44 49 36 94 101 94 138
0 37 -26 87 -57 109 -35 25 -96 35 -137 22z m103 -56 c41 -53 13 -163 -52
-203 -18 -12 -23 -11 -35 5 -42 55 -54 133 -27 184 25 48 82 55 114 14z m-44
-431 c50 -64 94 -123 98 -131 11 -18 -23 -55 -81 -89 -59 -35 -138 -30 -182
12 -51 49 -64 138 -31 210 18 41 81 115 97 115 5 -1 50 -53 99 -117z"/>
</g>
</svg>
